<svg width="79" height="79" viewBox="0 0 79 79" fill="none" xmlns="http://www.w3.org/2000/svg">
<path d="M39.5 0C28.7807 0 27.4328 0.049375 23.2211 0.237C19.0094 0.4345 16.1407 1.09612 13.6275 2.07375C10.9901 3.06286 8.60182 4.61853 6.63106 6.63106C4.61853 8.60182 3.06286 10.9901 2.07375 13.6275C1.09612 16.1357 0.429563 19.0094 0.237 23.2062C0.049375 27.4278 0 28.7708 0 39.5049C0 50.2292 0.049375 51.5722 0.237 55.7839C0.4345 59.9906 1.09612 62.8593 2.07375 65.3725C3.08594 67.9696 4.43388 70.1717 6.63106 72.3689C8.82331 74.5661 11.0254 75.919 13.6226 76.9262C16.1407 77.9039 19.0044 78.5704 23.2112 78.763C27.4278 78.9506 28.7708 79 39.5 79C50.2292 79 51.5673 78.9506 55.7839 78.763C59.9857 78.5655 62.8643 77.9039 65.3774 76.9262C68.0131 75.9365 70.3996 74.3809 72.3689 72.3689C74.5661 70.1717 75.9141 67.9696 76.9262 65.3725C77.8989 62.8593 78.5655 59.9906 78.763 55.7839C78.9506 51.5722 79 50.2292 79 39.5C79 28.7708 78.9506 27.4278 78.763 23.2112C78.5655 19.0094 77.8989 16.1357 76.9262 13.6275C75.9371 10.9901 74.3815 8.60182 72.3689 6.63106C70.3982 4.61853 68.0099 3.06286 65.3725 2.07375C62.8544 1.09612 59.9808 0.429563 55.7789 0.237C51.5623 0.049375 50.2243 0 39.4901 0H39.5ZM35.9598 7.11987H39.5049C50.0514 7.11987 51.3006 7.15444 55.4629 7.347C59.3142 7.51981 61.4077 8.16663 62.8001 8.70481C64.6417 9.42075 65.9601 10.2799 67.3426 11.6624C68.7251 13.0449 69.5793 14.3583 70.2952 16.2049C70.8383 17.5923 71.4802 19.6858 71.653 23.5371C71.8456 27.6994 71.8851 28.9486 71.8851 39.4901C71.8851 50.0317 71.8456 51.2858 71.653 55.4481C71.4802 59.2994 70.8334 61.3879 70.2952 62.7803C69.6574 64.4931 68.6473 66.043 67.3376 67.3179C65.9551 68.7004 64.6418 69.5546 62.7951 70.2705C61.4126 70.8136 59.3191 71.4555 55.4629 71.6333C51.3006 71.8209 50.0514 71.8653 39.5049 71.8653C28.9584 71.8653 27.7043 71.8209 23.542 71.6333C19.6908 71.4555 17.6022 70.8136 16.2098 70.2705C14.4957 69.6348 12.9441 68.6263 11.6673 67.3179C10.3553 66.042 9.34337 64.4904 8.70481 62.7754C8.16663 61.3879 7.51981 59.2944 7.347 55.4432C7.15938 51.2809 7.11987 50.0317 7.11987 39.4802C7.11987 28.9288 7.15938 27.6895 7.347 23.5272C7.52475 19.6759 8.16663 17.5824 8.70975 16.1901C9.42569 14.3484 10.2848 13.0301 11.6673 11.6476C13.0498 10.2651 14.3632 9.41088 16.2098 8.69494C17.6022 8.15181 19.6908 7.50994 23.542 7.33219C27.1859 7.16431 28.598 7.11494 35.9598 7.11V7.11987ZM60.5881 13.6769C59.9656 13.6769 59.3492 13.7995 58.7741 14.0377C58.1991 14.2759 57.6765 14.625 57.2364 15.0652C56.7962 15.5053 56.4471 16.0279 56.2089 16.603C55.9707 17.178 55.8481 17.7944 55.8481 18.4169C55.8481 19.0393 55.9707 19.6557 56.2089 20.2308C56.4471 20.8059 56.7962 21.3284 57.2364 21.7686C57.6765 22.2087 58.1991 22.5579 58.7741 22.7961C59.3492 23.0343 59.9656 23.1569 60.5881 23.1569C61.8452 23.1569 63.0508 22.6575 63.9397 21.7686C64.8287 20.8796 65.3281 19.674 65.3281 18.4169C65.3281 17.1597 64.8287 15.9541 63.9397 15.0652C63.0508 14.1763 61.8452 13.6769 60.5881 13.6769ZM39.5049 19.2167C36.8144 19.1748 34.1423 19.6685 31.6443 20.6691C29.1464 21.6697 26.8724 23.1572 24.9549 25.0451C23.0373 26.933 21.5145 29.1834 20.475 31.6655C19.4356 34.1475 18.9003 36.8116 18.9003 39.5025C18.9003 42.1934 19.4356 44.8574 20.475 47.3395C21.5145 49.8215 23.0373 52.072 24.9549 53.9598C26.8724 55.8477 29.1464 57.3353 31.6443 58.3359C34.1423 59.3365 36.8144 59.8302 39.5049 59.7882C44.8302 59.7051 49.9093 57.5313 53.6458 53.736C57.3823 49.9408 59.4766 44.8284 59.4766 39.5025C59.4766 34.1765 57.3823 29.0642 53.6458 25.2689C49.9093 21.4736 44.8302 19.2998 39.5049 19.2167ZM39.5049 26.3317C41.2342 26.3317 42.9466 26.6723 44.5442 27.3341C46.1419 27.9958 47.5936 28.9658 48.8163 30.1886C50.0391 31.4114 51.0091 32.8631 51.6709 34.4607C52.3326 36.0584 52.6733 37.7707 52.6733 39.5C52.6733 41.2293 52.3326 42.9416 51.6709 44.5393C51.0091 46.1369 50.0391 47.5886 48.8163 48.8114C47.5936 50.0342 46.1419 51.0042 44.5442 51.6659C42.9466 52.3277 41.2342 52.6683 39.5049 52.6683C36.0125 52.6683 32.6631 51.2809 30.1935 48.8114C27.724 46.3419 26.3366 42.9925 26.3366 39.5C26.3366 36.0075 27.724 32.6581 30.1935 30.1886C32.6631 27.7191 36.0125 26.3317 39.5049 26.3317Z" fill="#F8F8F8"/>
</svg>
