<svg width="83" height="78" viewBox="0 0 83 78" fill="none" xmlns="http://www.w3.org/2000/svg">
<path d="M49.1763 41.7998L44.3887 46.8462L67.471 68.5538L72.2586 63.5074L49.1763 41.7998Z" fill="#F8523F"/>
<path d="M51.8114 53.8629L57.0902 54.0547L56.5983 48.8169L51.2849 43.8867L46.5312 48.8983L51.8114 53.8629Z" fill="#AE2424"/>
<path d="M66.9091 63.1547C66.0265 64.0859 65.4099 65.1729 65.0566 66.3206L67.4383 68.5608L72.2266 63.5148L69.7798 61.2139C68.7241 61.6305 67.7418 62.2774 66.9091 63.1547Z" fill="#AE2424"/>
<path d="M68.1429 64.4487C65.0823 67.6752 65.2278 72.7585 68.4685 75.8057C71.7092 78.8529 76.8148 78.7081 79.8754 75.4815C82.936 72.255 82.7905 67.1717 79.5498 64.1245C76.3105 61.0773 71.2035 61.2235 68.1429 64.4487ZM76.6264 72.4274C75.263 73.8648 72.9811 73.9296 71.5374 72.5723C70.0937 71.2149 70.0286 68.9429 71.3919 67.5055C72.7553 66.0681 75.0372 66.0033 76.4809 67.3607C77.9246 68.7181 77.9897 70.9901 76.6264 72.4274Z" fill="#737373"/>
<path d="M59.7174 53.2975L56.5254 56.6621L57.4873 57.5667L60.6793 54.2021L59.7174 53.2975Z" fill="#AE2424"/>
<path d="M62.8834 56.2765L59.6914 59.6411L60.6533 60.5457L63.8454 57.1811L62.8834 56.2765Z" fill="#AE2424"/>
<path d="M66.0514 59.2697L62.8594 62.6343L63.8213 63.5389L67.0133 60.1743L66.0514 59.2697Z" fill="#AE2424"/>
<path d="M53.0024 32.5063L54.0789 49.3646L54.0998 49.7191L54.1094 49.8612L54.1219 50.0212L54.2036 51.34L52.8583 51.3317L52.7156 51.3303L52.2168 51.3275L46.5764 51.2917L39.4924 51.2434L35.25 51.2172L29.7232 43.244L26.851 39.1001L19.591 28.6273L11.8599 17.4744L0 0.362305L3.71039 2.61078L11.5717 7.37681L19.1144 11.9511L26.1971 16.2467L28.9986 17.9475L38.7054 23.8351L45.9142 28.2052L53.0024 32.5063Z" fill="#737373"/>
<path d="M19.113 11.9512L19.5896 28.6274L11.8585 17.4746L11.7657 14.2356L11.5703 7.37695L19.113 11.9512Z" fill="#413E44"/>
<path d="M28.9988 17.9479L29.7233 43.2444L26.8512 39.1005L26.1973 16.2471L28.9988 17.9479Z" fill="#413E44"/>
<path d="M45.9139 28.2056L46.5761 51.2921L39.4921 51.2438L38.7051 23.8354L45.9139 28.2056Z" fill="#413E44"/>
<path d="M24.9029 22.2602L54.0996 49.7195L54.1093 49.8616L54.1217 50.0216L54.2035 51.3404L52.8581 51.3321L23.509 23.7293L21.0664 20.042L24.9029 22.2602Z" fill="#ABABAB"/>
</svg>
