<svg width="468" height="1356" viewBox="0 0 468 1356" fill="none" xmlns="http://www.w3.org/2000/svg">
<path d="M227.314 0C231.771 8.73727 231.771 8.73727 232.207 18.1913C232.155 21.7391 232.103 25.2869 232.05 28.9422C232.01 32.5125 231.97 36.0829 231.928 39.7614C231.876 42.4983 231.825 45.2352 231.771 48.055C234.713 49.4966 237.655 50.9383 240.686 52.4236C237.744 52.4236 234.802 52.4236 231.771 52.4236C231.771 55.3069 231.771 58.1902 231.771 61.1609C233.978 61.1609 236.184 61.1609 238.457 61.1609C238.457 64.0442 238.457 66.9275 238.457 69.8981C236.986 69.8981 235.515 69.8981 234 69.8981C234 72.7814 234 75.6647 234 78.6354C235.471 78.6354 236.942 78.6354 238.457 78.6354C238.431 82.583 238.405 86.5307 238.379 90.598C238.359 95.7507 238.339 100.903 238.318 106.212C238.292 111.331 238.266 116.45 238.24 121.724C238.125 135.561 238.125 135.561 240.686 148.534C242.203 151.056 243.719 153.579 245.282 156.179C249.6 166.008 249.6 166.008 250.157 182.39C249.973 187.076 249.789 191.761 249.6 196.589C252.542 196.589 255.483 196.589 258.514 196.589C258.514 208.122 258.514 219.655 258.514 231.538C261.246 233.233 263.978 234.928 266.793 236.674C280.34 245.526 293.402 256.507 306.568 267.306C326.839 283.711 347.182 299.057 367.993 312.63C370.14 314.036 372.288 315.443 374.501 316.891C391.798 327.931 408.706 336.654 426.911 339.115C429.212 339.442 431.513 339.768 433.884 340.105C436.43 340.426 436.43 340.426 439.029 340.753C428.229 377.158 414.628 386.706 394.457 397.546C385.051 401.161 376.196 402.43 366.617 402.341C363.946 402.327 361.274 402.313 358.521 402.298C354.385 402.243 354.385 402.243 350.164 402.187C347.355 402.168 344.545 402.148 341.65 402.128C334.738 402.076 327.826 401.998 320.914 401.914C320.914 429.306 320.914 456.697 320.914 484.918C325.327 484.918 316.368 476.242 320.914 476.242C321.65 507.958 327.757 548.351 328.514 581.028C332.605 583.101 344.696 585.173 348.911 587.308C351.212 588.474 353.513 589.64 355.884 590.841C373.45 598.687 390.86 599.79 408.804 600.96C411.497 601.149 414.19 601.337 416.965 601.532C423.576 601.993 430.188 602.439 436.8 602.871C421.361 635.744 400.879 644.685 378.857 650.926C368.561 650.926 358.265 650.926 347.657 650.926C347.657 701.384 347.657 751.842 347.657 803.829C355.011 806.712 362.366 809.595 369.943 812.566C373.252 814.098 376.562 815.629 379.971 817.208C400.336 826.078 420.758 826.253 441.536 825.945C445.371 825.915 445.371 825.915 449.283 825.885C455.522 825.834 461.761 825.763 468 825.672C455.638 861.062 432.078 871.904 411.443 879.996C404.312 882.558 397.175 884.798 390 886.833C387.124 887.66 384.249 888.488 381.286 889.341C371.609 891.316 361.843 891.201 352.114 891.201C352.114 941.659 352.114 992.117 352.114 1044.1C353.585 1044.1 355.056 1044.1 356.571 1044.1C356.571 1080.14 356.571 1116.19 356.571 1153.32C355.101 1153.32 353.63 1153.32 352.114 1153.32C352.85 1164.85 353.585 1176.39 354.343 1188.27C355.501 1186.01 356.658 1183.75 357.851 1181.43C359.405 1178.55 360.959 1175.67 362.561 1172.71C364.086 1169.82 365.612 1166.93 367.183 1163.95C372.171 1157.69 372.171 1157.69 378.048 1158.11C383.314 1162.06 383.314 1162.06 388.05 1175.16C392.021 1185.68 393.78 1188 400.455 1190.66C404.819 1191.24 409.192 1191.61 413.565 1191.75C418.971 1192.64 418.971 1192.64 423.429 1201.37C423.757 1209.27 423.921 1217.2 423.986 1225.13C424.305 1238 424.305 1238 425.657 1249.43C431.786 1258.17 431.786 1258.17 439.029 1262.54C445.439 1276.46 449.802 1286.6 450.868 1305.4C449.969 1323.38 448.098 1329.07 441.257 1341.17C422.828 1357.28 404.495 1356.1 384.703 1355.9C381.026 1355.91 377.349 1355.93 373.671 1355.95C363.73 1355.99 353.789 1355.95 343.848 1355.89C333.416 1355.84 322.983 1355.86 312.551 1355.87C295.033 1355.87 277.516 1355.83 259.998 1355.75C239.785 1355.65 219.573 1355.64 199.36 1355.66C179.868 1355.69 160.376 1355.66 140.884 1355.62C132.611 1355.6 124.338 1355.59 116.065 1355.6C106.309 1355.61 96.5543 1355.57 86.799 1355.5C83.2326 1355.49 79.6663 1355.48 76.0999 1355.49C37.1426 1355.61 37.1426 1355.61 22.2857 1345.54C17.8286 1336.8 17.8286 1336.8 16.9929 1324.79C18.3763 1301.28 24.6281 1288.62 32.8714 1272.09C39.7539 1263.01 41.8363 1261.21 49.5857 1259.8C52.3436 1259.26 55.1014 1258.72 57.9429 1258.17C62.4863 1244.81 62.943 1240.89 63.375 1225.67C63.9787 1214.12 64.6437 1205.67 66.8571 1194.82C72.0592 1187.17 74.2775 1187.36 80.6464 1186.63C90.9507 1185.01 97.3665 1179.61 105.459 1167.09C113.206 1147.62 111.625 1122.91 111.429 1099.26C111.454 1093.96 111.48 1088.66 111.507 1083.2C111.559 1070.16 111.531 1057.14 111.429 1044.1C112.899 1044.1 114.37 1044.1 115.886 1044.1C115.886 995.087 115.886 946.071 115.886 895.57C108.531 895.57 101.177 895.57 93.6 895.57C60.428 889.282 22.9719 877.897 0 825.672C0 824.23 0 822.788 0 821.303C2.60273 821.557 5.20546 821.81 7.88705 822.071C41.9741 824.24 74.1647 813.826 107.504 801.465C113.657 799.46 113.657 799.46 120.343 799.46C120.343 750.444 120.343 701.428 120.343 650.926C114.367 651.197 108.392 651.467 102.236 651.746C79.2263 652.14 55.8303 648.498 35.6571 624.715C33.0477 615.528 33.0477 615.528 31.2 607.24C32.6884 607.31 34.1769 607.379 35.7105 607.451C50.7487 607.848 65.09 605.582 79.95 601.233C82.0676 600.64 84.1852 600.047 86.3669 599.436C92.4954 597.708 98.6197 595.932 104.743 594.134C106.412 593.646 108.081 593.159 109.801 592.656C117.779 590.312 138.747 587.873 146.714 585.397C146.714 552.239 147.086 551.163 147.086 517C147.086 501.5 142.539 484.918 147.086 484.918C147.086 457.527 147.086 430.136 147.086 401.914C141.765 402.066 136.445 402.218 130.963 402.375C125.719 402.478 120.474 402.557 115.23 402.634C111.629 402.699 108.029 402.788 104.428 402.903C55.0463 404.433 55.0463 404.433 35.2393 380.071C31.2 371.334 31.2 371.334 28.9714 358.228C33.2633 356.471 33.2633 356.471 37.642 354.678C90.7082 332.021 143.079 289.347 189.949 235.5C193.886 231.538 193.886 231.538 198.343 231.538C198.343 220.004 198.343 208.471 198.343 196.589C201.285 196.589 204.226 196.589 207.257 196.589C207.487 191.092 207.717 185.596 207.954 179.933C208.698 168.153 209.106 162.674 212.689 152.902C216.171 148.534 216.171 148.534 220.629 148.534C221.364 128.35 222.099 108.167 222.857 87.3727C221.386 87.3727 219.915 87.3727 218.4 87.3727C218.4 84.4894 218.4 81.6061 218.4 78.6354C220.606 78.6354 222.813 78.6354 225.086 78.6354C225.086 75.7521 225.086 72.8688 225.086 69.8981C222.879 69.8981 220.673 69.8981 218.4 69.8981C218.4 67.0148 218.4 64.1315 218.4 61.1609C220.606 61.1609 222.813 61.1609 225.086 61.1609C225.086 58.2776 225.086 55.3943 225.086 52.4236C222.879 50.982 220.673 49.5403 218.4 48.055C220.606 46.6133 222.813 45.1717 225.086 43.6863C225.821 29.2698 226.557 14.8534 227.314 0Z" fill="#080A0A"/>
</svg>
