<svg width="308" height="55" viewBox="0 0 308 55" fill="none" xmlns="http://www.w3.org/2000/svg">
<g style="mix-blend-mode:plus-darker" opacity="0.72">
<path d="M25.3781 0.235335V33.9051C25.3781 47.9342 18.3635 54.9487 4.33447 54.9487H0.125748V42.3226H4.33447C9.9461 42.3226 12.7519 39.5167 12.7519 33.9051V12.8615H0.125748V0.235335H25.3781ZM82.6773 54.9487H77.0376C49.9335 54.9487 36.3814 42.3226 36.3814 17.0702V12.8615H32.1726V0.235335H49.0075V17.0702C49.0075 31.6605 56.0221 39.9236 70.0511 41.8596V0.235335H82.6773V54.9487ZM106.307 42.3226H118.933C124.545 42.3226 127.35 39.5167 127.35 33.9051V12.8615H106.307V42.3226ZM89.4719 54.9487V42.3226H93.6806V12.8615H89.4719V0.235335H139.977V33.9051C139.977 47.9342 132.962 54.9487 118.933 54.9487H89.4719ZM197.276 54.9487H191.636C164.532 54.9487 150.98 42.3226 150.98 17.0702V12.8615H146.771V0.235335H197.276V12.8615H163.606V17.0702C163.606 31.6605 170.621 39.9236 184.65 41.8596V33.9051H176.232V21.2789H197.276V54.9487ZM220.905 21.2789H246.158V33.9051H220.905C220.905 39.5167 223.711 42.3226 229.323 42.3226H254.575V54.9487H229.323C215.294 54.9487 208.279 47.9342 208.279 33.9051H204.07V21.2789H208.279V12.8615H204.07V0.235335H254.575V12.8615H220.905V21.2789ZM307.666 33.9051C307.666 47.9342 300.651 54.9487 286.622 54.9487H261.37V42.3226H286.622C292.234 42.3226 295.039 39.5167 295.039 33.9051H261.37V21.2789C261.37 7.24987 268.384 0.235335 282.413 0.235335H307.666V12.8615H282.413C276.802 12.8615 273.996 15.6673 273.996 21.2789H307.666V33.9051Z" fill="#710000" fill-opacity="0.92"/>
</g>
</svg>
