<svg width="1025" height="223" viewBox="0 0 1025 223" fill="none" xmlns="http://www.w3.org/2000/svg">
<g clip-path="url(#clip0_1_2)">
<g style="mix-blend-mode:hard-light">
<path d="M681.063 64.053C681.063 64.053 348.445 63.7491 259.594 65.2692C170.742 66.7893 0 45.5073 0 45.5073L54.9329 117.076C54.9329 117.076 121.26 159.275 269.345 159.275H681.489L681.063 64.053Z" fill="url(#paint0_linear_1_2)"/>
<path style="mix-blend-mode:soft-light" d="M681.063 64.053C681.063 64.053 348.445 63.7491 259.594 65.2692C170.742 66.7893 0 45.5073 0 45.5073L54.9329 117.076C54.9329 117.076 121.26 159.275 269.345 159.275H681.489L681.063 64.053Z" fill="url(#paint1_linear_1_2)"/>
<g style="mix-blend-mode:soft-light">
<path d="M681.489 67.4549C681.489 67.4549 348.663 78.8982 259.756 80.3652C186.127 81.5976 0 45.5073 0 45.5073C0 45.5073 170.848 66.0466 259.756 64.5795C348.663 63.1124 681.489 63.4057 681.489 63.4057V67.4549Z" fill="white"/>
</g>
<g style="mix-blend-mode:multiply">
<path d="M680.209 66.6181C680.209 66.6181 347.381 66.3139 258.475 67.835C195.556 68.93 91.5356 58.5266 36.141 52.3819C14.1936 48.3057 0 45.5073 0 45.5073C0 45.5073 170.848 66.8008 259.756 65.2799C348.663 63.7588 681.489 64.063 681.489 64.063V68.2609H680.11L680.209 66.6181Z" fill="#CDCAC7"/>
</g>
<path d="M673.818 63.7101H1007.53V159.275H673.818V63.7101Z" fill="url(#paint2_linear_1_2)"/>
<path d="M1015.19 63.7101H1007.53V159.275H1015.19C1017.56 159.275 1019.85 157.467 1021.53 154.25C1023.2 151.031 1024.15 146.667 1024.15 142.116V81.0522C1024.16 78.7835 1023.95 76.5326 1023.5 74.4295C1023.06 72.3264 1022.39 70.4132 1021.56 68.8004C1020.73 67.1876 1019.74 65.9073 1018.64 65.0335C1017.54 64.1598 1016.37 63.7099 1015.19 63.7101Z" fill="url(#paint3_linear_1_2)"/>
<g style="mix-blend-mode:soft-light">
<path d="M977.651 112.663L969.996 141.942L974.16 158.106H989.467L977.651 112.663ZM977.651 110.955L990.172 158.899H974.16L969.741 141.942L977.843 110.955H977.651Z" fill="white"/>
<path d="M949.627 64.1702L961.349 109.247L969.035 79.7245L964.999 64.1702H949.627ZM948.955 63.3772H965.319L969.548 79.7245L961.349 110.955L948.89 63.3772H948.955Z" fill="white"/>
<path d="M974.16 64.1702L949.755 158.106H964.872L989.467 64.1702H974.16ZM973.903 63.3772H990.172L965.16 158.899H949.148L973.968 63.3772H973.903Z" fill="white"/>
<path d="M936.496 112.663L928.841 141.942L933.069 158.106H948.313L936.496 112.663ZM936.496 110.955L948.955 158.899H932.941L928.521 141.942L936.624 110.955H936.496Z" fill="white"/>
<path d="M908.474 64.1702L920.259 109.247L927.946 79.7245L923.91 64.1702H908.474ZM907.801 63.3772H924.166L928.394 79.7245L920.259 110.955L907.801 63.3772Z" fill="white"/>
<path d="M932.877 64.1702L908.473 158.106H923.717L948.313 64.1702H932.877ZM932.62 63.3772H948.955L923.942 158.899H907.928L932.524 63.3772H932.62Z" fill="white"/>
<path d="M895.342 112.663L887.688 141.942L891.915 158.106H907.16L895.342 112.663ZM895.342 110.955L907.8 158.899H891.787L887.368 141.942L895.471 110.955H895.342Z" fill="white"/>
<path d="M867.321 64.1702L879.107 109.247L886.793 79.7245L882.757 64.1702H867.321ZM866.648 63.3772H883.014L887.241 79.7245L879.107 110.955L866.648 63.3772Z" fill="white"/>
<path d="M891.723 64.1702L867.319 158.106H882.564L907.16 64.1702H891.723ZM891.467 63.3772H907.8L882.788 158.899H866.775L891.595 63.3772H891.467Z" fill="white"/>
<path d="M854.189 112.663L846.534 141.942L850.761 158.106H866.006L854.189 112.663ZM854.189 110.955L866.646 158.899H850.633L846.053 141.942L854.156 110.955H854.189Z" fill="white"/>
<path d="M826.165 64.1702L837.951 109.247L845.637 79.7245L841.602 64.1702H826.165ZM825.493 63.3772H841.858L846.053 79.7245L837.919 110.955L825.46 63.3772H825.493Z" fill="white"/>
<path d="M850.569 64.1702L826.165 158.106H841.41L866.006 64.1702H850.569ZM850.313 63.3772H866.646L841.634 158.899H825.621L850.441 63.3772H850.313Z" fill="white"/>
<path d="M813.036 112.663L805.382 141.942L809.609 158.106H824.854L813.036 112.663ZM813.036 110.955L825.495 158.899H809.481L805.062 141.942L813.164 110.955H813.036Z" fill="white"/>
<path d="M785.011 64.1702L796.797 109.247L804.42 79.7245L800.384 64.1702H785.011ZM784.339 63.3772H800.705L804.932 79.7245L796.797 110.955L784.339 63.3772Z" fill="white"/>
<path d="M809.418 64.1702L785.013 158.106H800.258L824.854 64.1702H809.418ZM809.161 63.3772H825.495L800.482 158.899H784.469L809.289 63.3772H809.161Z" fill="white"/>
<path d="M771.88 112.663L764.227 141.942L768.454 158.106H783.699L771.88 112.663ZM771.88 110.955L784.339 158.899H768.326L763.906 141.942L772.008 110.955H771.88Z" fill="white"/>
<path d="M743.857 64.1702L755.642 109.247L763.329 79.7245L759.293 64.1702H743.857ZM743.184 63.3772H759.581L763.809 79.7245L755.674 110.955L743.216 63.3772H743.184Z" fill="white"/>
<path d="M768.262 64.1702L743.858 158.106H759.103L783.699 64.1702H768.262ZM768.005 63.3772H784.339L759.327 158.899H743.313L768.134 63.3772H768.005Z" fill="white"/>
<path d="M730.759 112.663L723.105 141.942L727.332 158.106H742.577L730.759 112.663ZM730.759 110.955L743.217 158.899H727.204L722.785 141.942L730.759 110.955Z" fill="white"/>
<path d="M702.702 64.1702L714.488 109.247L722.174 79.7245L718.139 64.1702H702.702ZM702.03 63.3772H718.395L722.622 79.7245L714.488 110.955L702.03 63.3772Z" fill="white"/>
<path d="M727.108 64.1702L702.704 158.106H717.948L742.576 64.1702H727.108ZM726.852 63.3772H743.185L718.172 158.899H702.159L726.98 63.3772H726.852Z" fill="white"/>
<path d="M689.574 112.663L681.919 141.942L686.146 158.106H701.391L689.574 112.663ZM689.574 110.955L701.936 158.899H685.922L681.503 141.942L689.605 110.955H689.574Z" fill="white"/>
<path d="M661.55 64.1702L673.336 109.247L681.022 79.7245L676.987 64.1702H661.55ZM660.878 63.3772H677.244L681.471 79.7245L673.336 110.955L660.878 63.3772Z" fill="white"/>
<path d="M685.922 64.1702L661.518 158.106H676.763L701.359 64.1702H685.922ZM685.667 63.3772H701.936L676.923 158.899H660.91L685.73 63.3772H685.667Z" fill="white"/>
</g>
<path style="mix-blend-mode:overlay" d="M673.818 63.7101H1007.53V159.275H673.818V63.7101Z" fill="url(#paint4_linear_1_2)"/>
<path opacity="0.7" d="M990.27 63.7101L978.123 111.523L990.27 159.275L1002.42 111.523L990.27 63.7101Z" fill="black"/>
<path opacity="0.7" d="M948.716 63.7101L935.929 111.523L948.716 159.275L961.501 111.523L948.716 63.7101Z" fill="black"/>
<path opacity="0.7" d="M907.801 63.7101L895.014 111.523L907.801 159.275L920.587 111.523L907.801 63.7101Z" fill="black"/>
<path opacity="0.7" d="M866.886 63.7101L854.1 111.523L866.886 159.275L879.672 111.523L866.886 63.7101Z" fill="black"/>
<path opacity="0.7" d="M825.331 63.7101L813.185 111.523L825.331 159.275L837.477 111.523L825.331 63.7101Z" fill="black"/>
<path opacity="0.7" d="M784.416 63.7101L772.27 111.523L784.416 159.275L796.563 111.523L784.416 63.7101Z" fill="black"/>
<path opacity="0.7" d="M742.862 63.7101L730.077 111.523L742.862 159.275L755.648 111.523L742.862 63.7101Z" fill="black"/>
<path opacity="0.7" d="M701.947 63.7101L689.162 111.523L701.947 159.275L714.733 111.523L701.947 63.7101Z" fill="black"/>
<g style="mix-blend-mode:multiply">
<path d="M43.4721 101.826C133.266 136.838 241.65 143.495 390.595 145.591C539.54 147.686 589.364 89.4976 589.364 89.4976H667.695L681.489 141.153V159.275H269.337C121.213 159.275 54.8688 116.497 54.8688 116.497L43.4721 101.826Z" fill="#F6F5F4"/>
</g>
<path style="mix-blend-mode:multiply" opacity="0.7" d="M1015.19 63.7101H1007.53V159.275H1015.19C1017.56 159.275 1019.85 157.467 1021.53 154.25C1023.2 151.031 1024.15 146.667 1024.15 142.116V81.0522C1024.16 78.7835 1023.95 76.5326 1023.5 74.4295C1023.06 72.3264 1022.39 70.4132 1021.56 68.8004C1020.73 67.1876 1019.74 65.9073 1018.64 65.0335C1017.54 64.1598 1016.37 63.7099 1015.19 63.7101Z" fill="url(#paint5_linear_1_2)"/>
<path d="M671.106 222.336C673.997 222.336 676.77 220.973 678.814 218.548C680.858 216.123 682.006 212.834 682.006 209.404V12.8707C682.006 11.1754 681.723 9.49672 681.175 7.93123C680.627 6.36572 679.823 4.94419 678.811 3.74826C677.798 2.55233 676.595 1.60555 675.274 0.962351C673.951 0.319148 672.536 -0.00789015 671.106 0.00014453C669.682 0.00014453 668.271 0.333047 666.954 0.979848C665.639 1.62665 664.442 2.57472 663.435 3.76985C662.427 4.96499 661.629 6.38385 661.083 7.94537C660.538 9.50688 660.258 11.1805 660.258 12.8707V209.404C660.258 212.823 661.4 216.103 663.432 218.527C665.465 220.95 668.224 222.319 671.106 222.336Z" fill="url(#paint6_linear_1_2)"/>
<path style="mix-blend-mode:multiply" d="M671.106 222.336C673.997 222.336 676.77 220.973 678.814 218.548C680.858 216.123 682.006 212.834 682.006 209.404V12.8707C682.006 11.1754 681.723 9.49672 681.175 7.93123C680.627 6.36572 679.823 4.94419 678.811 3.74826C677.798 2.55233 676.595 1.60555 675.274 0.962351C673.951 0.319148 672.536 -0.00789015 671.106 0.00014453C669.682 0.00014453 668.271 0.333047 666.954 0.979848C665.639 1.62665 664.442 2.57472 663.435 3.76985C662.427 4.96499 661.629 6.38385 661.083 7.94537C660.538 9.50688 660.258 11.1805 660.258 12.8707V209.404C660.258 212.823 661.4 216.103 663.432 218.527C665.465 220.95 668.224 222.319 671.106 222.336Z" fill="url(#paint7_linear_1_2)"/>
<path style="mix-blend-mode:multiply" d="M701.947 63.7102V159.275H673.818V63.7102H701.947Z" fill="url(#paint8_linear_1_2)"/>
</g>
<g style="mix-blend-mode:plus-darker" opacity="0.72">
<path d="M79.8809 100.656H100.389V110.91H79.8809C79.8809 115.467 82.1595 117.746 86.7168 117.746H107.225V128H86.7168C75.3236 128 69.627 122.303 69.627 110.91H66.209V100.656H69.627V93.8203H66.209V83.5664H107.225V93.8203H79.8809V100.656ZM124.314 117.746C124.314 124.582 120.896 128 114.061 128H110.643V117.746H114.061V93.8203H110.643V83.5664H131.15V80.1484H141.404V83.5664H161.912V93.8203H158.494V117.746H161.912V128H158.494C151.658 128 148.24 124.582 148.24 117.746V93.8203H141.404V110.91H131.15V93.8203H124.314V117.746ZM179.002 100.656H199.51V110.91H179.002C179.002 115.467 181.281 117.746 185.838 117.746H206.346V128H185.838C174.445 128 168.748 122.303 168.748 110.91H165.33V100.656H168.748V93.8203H165.33V83.5664H206.346V93.8203H179.002V100.656ZM223.436 93.8203V100.656H240.525V93.8203H223.436ZM237.107 110.91C237.107 115.467 239.386 117.746 243.943 117.746H250.779V128H243.943C232.55 128 226.854 122.303 226.854 110.91H223.436V128H213.182V110.91H209.764V100.656H213.182V83.5664H250.779V100.656C250.779 107.492 247.361 110.91 240.525 110.91H237.107ZM254.197 83.5664H264.451V117.746H267.869V128H264.451C257.615 128 254.197 124.582 254.197 117.746V83.5664ZM284.959 93.8203H271.287V83.5664H308.885V93.8203H295.213V117.746H298.631V128H295.213C288.377 128 284.959 124.582 284.959 117.746V93.8203ZM353.318 128H348.738C326.727 128 315.721 117.746 315.721 97.2383V93.8203H312.303V83.5664H325.975V97.2383C325.975 109.087 331.671 115.798 343.064 117.37V83.5664H353.318V128ZM394.334 110.91C394.334 122.303 388.637 128 377.244 128H356.736V117.746H377.244C381.801 117.746 384.08 115.467 384.08 110.91H356.736V100.656C356.736 89.263 362.433 83.5664 373.826 83.5664H394.334V93.8203H373.826C369.269 93.8203 366.99 96.099 366.99 100.656H394.334V110.91ZM435.623 83.5664V110.91C435.623 122.303 429.926 128 418.533 128H415.115V117.746H418.533C423.09 117.746 425.369 115.467 425.369 110.91V93.8203H415.115V83.5664H435.623ZM480.057 128H475.477C453.465 128 442.459 117.746 442.459 97.2383V93.8203H439.041V83.5664H452.713V97.2383C452.713 109.087 458.41 115.798 469.803 117.37V83.5664H480.057V128ZM497.146 117.746H507.4C511.958 117.746 514.236 115.467 514.236 110.91V93.8203H497.146V117.746ZM483.475 128V117.746H486.893V93.8203H483.475V83.5664H524.49V110.91C524.49 122.303 518.794 128 507.4 128H483.475ZM568.924 128H564.344C542.332 128 531.326 117.746 531.326 97.2383V93.8203H527.908V83.5664H568.924V93.8203H541.58V97.2383C541.58 109.087 547.277 115.798 558.67 117.37V110.91H551.834V100.656H568.924V128ZM586.014 100.656H606.521V110.91H586.014C586.014 115.467 588.292 117.746 592.85 117.746H613.357V128H592.85C581.456 128 575.76 122.303 575.76 110.91H572.342V100.656H575.76V93.8203H572.342V83.5664H613.357V93.8203H586.014V100.656ZM654.373 110.91C654.373 122.303 648.676 128 637.283 128H616.775V117.746H637.283C641.84 117.746 644.119 115.467 644.119 110.91H616.775V100.656C616.775 89.263 622.472 83.5664 633.865 83.5664H654.373V93.8203H633.865C629.308 93.8203 627.029 96.099 627.029 100.656H654.373V110.91Z" fill="#710000" fill-opacity="0.92"/>
</g>
</g>
<defs>
<linearGradient id="paint0_linear_1_2" x1="681.457" y1="102.361" x2="-0.0328209" y2="102.361" gradientUnits="userSpaceOnUse">
<stop stop-color="#878375"/>
<stop offset="0.06" stop-color="#A09C8D"/>
<stop offset="0.12" stop-color="#BAB6A7"/>
<stop offset="0.16" stop-color="#C4C0B1"/>
<stop offset="0.29" stop-color="#CECBBD"/>
<stop offset="0.5" stop-color="#DCDACC"/>
<stop offset="0.56" stop-color="#E2E1D5"/>
<stop offset="0.67" stop-color="#E8E9DF"/>
<stop offset="0.82" stop-color="#EAEBE2"/>
<stop offset="0.86" stop-color="#E7E8DF"/>
<stop offset="0.89" stop-color="#DFDFD5"/>
<stop offset="0.92" stop-color="#D0D0C5"/>
<stop offset="0.95" stop-color="#BBBBAE"/>
<stop offset="0.98" stop-color="#A19F90"/>
<stop offset="1" stop-color="#888675"/>
</linearGradient>
<linearGradient id="paint1_linear_1_2" x1="340.728" y1="155.688" x2="340.728" y2="53.5337" gradientUnits="userSpaceOnUse">
<stop stop-color="#464347"/>
<stop offset="0.06" stop-color="#605E61"/>
<stop offset="0.17" stop-color="#8A888B"/>
<stop offset="0.28" stop-color="#AEADAF"/>
<stop offset="0.4" stop-color="#CCCBCC"/>
<stop offset="0.52" stop-color="#E2E2E2"/>
<stop offset="0.66" stop-color="#F2F2F3"/>
<stop offset="0.81" stop-color="#FCFCFC"/>
<stop offset="1" stop-color="white"/>
</linearGradient>
<linearGradient id="paint2_linear_1_2" x1="840.69" y1="156.712" x2="840.69" y2="63.588" gradientUnits="userSpaceOnUse">
<stop stop-color="#2E220D"/>
<stop offset="0.02" stop-color="#1F1709"/>
<stop offset="0.06" stop-color="#0E0A04"/>
<stop offset="0.1" stop-color="#030201"/>
<stop offset="0.15"/>
<stop offset="0.48" stop-color="#381D00"/>
<stop offset="0.65" stop-color="#4A3E20"/>
<stop offset="0.84" stop-color="#606648"/>
<stop offset="0.88" stop-color="#5E6146"/>
<stop offset="0.92" stop-color="#575341"/>
<stop offset="0.96" stop-color="#4F423A"/>
</linearGradient>
<linearGradient id="paint3_linear_1_2" x1="1015.82" y1="64.0154" x2="1015.82" y2="159.641" gradientUnits="userSpaceOnUse">
<stop stop-color="#999690"/>
<stop offset="0.01" stop-color="#CBC8C3"/>
<stop offset="0.02" stop-color="#DCDAD4"/>
<stop offset="0.03" stop-color="#E8E6E1"/>
<stop offset="0.04" stop-color="#EFEDE8"/>
<stop offset="0.07" stop-color="#E7E5E0"/>
<stop offset="0.08" stop-color="#D0CEC9"/>
<stop offset="0.1" stop-color="#BEBCB8"/>
<stop offset="0.11" stop-color="#B2B0AC"/>
<stop offset="0.14" stop-color="#ABA9A5"/>
<stop offset="0.2" stop-color="#A9A7A3"/>
<stop offset="0.23" stop-color="#C0BEBA"/>
<stop offset="0.28" stop-color="#D6D4D0"/>
<stop offset="0.33" stop-color="#E6E4E0"/>
<stop offset="0.39" stop-color="#EFEDE9"/>
<stop offset="0.48" stop-color="#F2F0EC"/>
<stop offset="0.54" stop-color="#E6E4DF"/>
<stop offset="0.64" stop-color="#C6C3BD"/>
<stop offset="0.69" stop-color="#B5B1AB"/>
<stop offset="0.7" stop-color="#B0ACA6"/>
<stop offset="0.75" stop-color="#7F7D78"/>
<stop offset="0.8" stop-color="#615F5C"/>
<stop offset="0.82" stop-color="#565451"/>
<stop offset="0.84" stop-color="#5A5855"/>
<stop offset="0.87" stop-color="#676561"/>
<stop offset="0.9" stop-color="#7C7A76"/>
<stop offset="0.92" stop-color="#9A9792"/>
<stop offset="0.95" stop-color="#BFBCB7"/>
<stop offset="0.96" stop-color="#CCC9C3"/>
</linearGradient>
<linearGradient id="paint4_linear_1_2" x1="840.69" y1="156.712" x2="840.69" y2="63.588" gradientUnits="userSpaceOnUse">
<stop stop-color="white"/>
<stop offset="0.02" stop-color="#DCDCDC"/>
<stop offset="0.04" stop-color="#B6B6B6"/>
<stop offset="0.06" stop-color="#969696"/>
<stop offset="0.08" stop-color="#7E7E7E"/>
<stop offset="0.1" stop-color="#6D6D6D"/>
<stop offset="0.12" stop-color="#626262"/>
<stop offset="0.15" stop-color="#5F5F5F"/>
<stop offset="0.48" stop-color="#76634F"/>
<stop offset="0.56" stop-color="#8F8070"/>
<stop offset="0.73" stop-color="#D0C9C2"/>
<stop offset="0.84" stop-color="white"/>
<stop offset="0.86" stop-color="#FBFAFA"/>
<stop offset="0.89" stop-color="#EEEDEC"/>
<stop offset="0.92" stop-color="#D9D7D5"/>
<stop offset="0.95" stop-color="#BCB7B4"/>
<stop offset="0.98" stop-color="#97908B"/>
<stop offset="1" stop-color="#726862"/>
</linearGradient>
<linearGradient id="paint5_linear_1_2" x1="1024.15" y1="111.523" x2="1007.53" y2="111.523" gradientUnits="userSpaceOnUse">
<stop stop-color="#463537"/>
<stop offset="0.25" stop-color="#999090"/>
<stop offset="0.86" stop-color="white"/>
<stop offset="0.91" stop-color="#FDFDFD"/>
<stop offset="0.93" stop-color="#F6F6F6"/>
<stop offset="0.95" stop-color="#EBE9E9"/>
<stop offset="0.96" stop-color="#DAD7D7"/>
<stop offset="0.98" stop-color="#C5C0C0"/>
<stop offset="0.99" stop-color="#AAA3A3"/>
<stop offset="1" stop-color="#867B7C"/>
</linearGradient>
<linearGradient id="paint6_linear_1_2" x1="681.954" y1="111.138" x2="660.258" y2="111.138" gradientUnits="userSpaceOnUse">
<stop stop-color="#979592"/>
<stop offset="0.01" stop-color="#7D7C79"/>
<stop offset="0.03" stop-color="#575654"/>
<stop offset="0.05" stop-color="#373736"/>
<stop offset="0.08" stop-color="#1F1F1E"/>
<stop offset="0.1" stop-color="#0E0D0D"/>
<stop offset="0.12" stop-color="#030303"/>
<stop offset="0.15"/>
<stop offset="0.48" stop-color="#76634F"/>
<stop offset="0.58" stop-color="#8E7E70"/>
<stop offset="0.8" stop-color="#CBC2C2"/>
<stop offset="0.84" stop-color="#D6CED1"/>
<stop offset="0.87" stop-color="#D2CACC"/>
<stop offset="0.9" stop-color="#C5BDBE"/>
<stop offset="0.93" stop-color="#B0A7A7"/>
<stop offset="0.97" stop-color="#938A87"/>
<stop offset="1" stop-color="#726862"/>
</linearGradient>
<linearGradient id="paint7_linear_1_2" x1="671.157" y1="224.532" x2="671.157" y2="-0.243851" gradientUnits="userSpaceOnUse">
<stop stop-color="#6F4C18"/>
<stop offset="0.02" stop-color="#846639"/>
<stop offset="0.04" stop-color="#9D8662"/>
<stop offset="0.06" stop-color="#B5A388"/>
<stop offset="0.09" stop-color="#C9BCA8"/>
<stop offset="0.12" stop-color="#DAD1C4"/>
<stop offset="0.15" stop-color="#E8E2DA"/>
<stop offset="0.19" stop-color="#F2EFEB"/>
<stop offset="0.24" stop-color="#FAF8F6"/>
<stop offset="0.31" stop-color="#FEFEFD"/>
<stop offset="0.5" stop-color="white"/>
<stop offset="0.68" stop-color="#FEFEFD"/>
<stop offset="0.75" stop-color="#FAF8F6"/>
<stop offset="0.8" stop-color="#F2EFEA"/>
<stop offset="0.84" stop-color="#E7E2D9"/>
<stop offset="0.88" stop-color="#DAD0C3"/>
<stop offset="0.91" stop-color="#C8BBA7"/>
<stop offset="0.94" stop-color="#B4A287"/>
<stop offset="0.96" stop-color="#9C8461"/>
<stop offset="0.99" stop-color="#826437"/>
<stop offset="1" stop-color="#6F4C18"/>
</linearGradient>
<linearGradient id="paint8_linear_1_2" x1="673.915" y1="111.493" x2="702.494" y2="111.493" gradientUnits="userSpaceOnUse">
<stop stop-color="#6F4C18"/>
<stop offset="0.02" stop-color="#745220"/>
<stop offset="0.17" stop-color="#987F5A"/>
<stop offset="0.32" stop-color="#B8A68D"/>
<stop offset="0.47" stop-color="#D1C6B6"/>
<stop offset="0.62" stop-color="#E5DFD6"/>
<stop offset="0.75" stop-color="#F3F1ED"/>
<stop offset="0.89" stop-color="#FCFBFA"/>
<stop offset="1" stop-color="white"/>
</linearGradient>
<clipPath id="clip0_1_2">
<rect width="1025" height="223" fill="white"/>
</clipPath>
</defs>
</svg>
