<svg width="166" height="134" viewBox="0 0 166 134" fill="none" xmlns="http://www.w3.org/2000/svg">
<path d="M44.0688 67.6531C43.0186 70.0079 33.5403 71.2645 25.8841 67.2545C25.5973 67.1055 25.3146 66.9468 25.032 66.7813C23.5107 65.886 22.0753 64.7687 20.82 63.392C9.15689 50.6058 0.863281 60.6442 0.863281 60.6442C0.863281 60.6442 5.16526 40.0089 31.7974 43.3279C40.6798 44.4356 49.7646 44.0162 54.0929 40.7759L44.0688 67.6531Z" fill="#F8523F"/>
<path d="M42.7596 55.6614C35.0285 56.9871 28.5789 63.9312 25.8814 67.2543C25.5946 67.1053 25.3119 66.9467 25.0293 66.7811C28.9447 52.0513 42.5767 49.5132 42.5767 49.5132L42.7596 55.6614Z" fill="#AE2424"/>
<path d="M44.9921 55.6864C44.9921 55.6864 32.7318 54.58 23.8272 70.7886C14.9281 86.9875 4.57422 82.6271 4.57422 82.6271C4.57422 82.6271 14.7314 93.0889 30.2739 88.7174C50.5216 83.023 52.7994 59.6247 44.9921 55.6864Z" fill="#F8523F"/>
<path d="M98.9276 133.892C59.5904 133.892 28.2379 89.8186 33.1315 57.2221C36.1533 37.1 45.7174 23.7456 56.6518 14.8991C81.2057 -4.96637 116.648 -4.96637 141.202 14.8991C152.136 23.7456 161.701 37.1 164.722 57.2221C169.62 89.82 140.583 133.892 98.9276 133.892Z" fill="#BABABA"/>
<path d="M152.142 55.8277C155.103 62.1815 153.882 69.7836 148.816 74.6435C144.08 79.1832 136.138 81.5628 123.314 72.9205C115.461 67.6276 107.608 64.6949 103.012 63.2768C100.352 62.456 97.5036 62.456 94.8434 63.2768C90.2477 64.6935 82.3947 67.6276 74.5417 72.9205C61.7161 81.5642 53.7744 79.1846 49.0401 74.6435C43.972 69.785 42.7513 62.1815 45.7135 55.8277C50.5199 45.5136 61.6011 28.8939 81.6742 34.1028C93.0035 37.0424 104.854 37.0424 116.183 34.1028C136.255 28.8953 147.336 45.515 152.142 55.8277Z" fill="#F4F3E3"/>
<path d="M116.141 57.6166C114.314 57.309 112.475 57.0372 110.66 56.8165C110.66 56.8165 110.671 56.7931 110.692 56.7476C112.461 56.971 114.308 57.2552 116.141 57.6166Z" fill="#2A272D"/>
<path d="M144.507 65.2806C144.507 65.2806 129.991 61.3464 116.98 59.1393C116.952 59.1365 116.926 59.1338 116.898 59.1269C114.985 58.7489 113.056 58.4523 111.208 58.2192C104.537 57.3777 98.9255 57.357 98.9255 57.357C98.9255 57.357 93.3142 57.3777 86.643 58.2192C84.7962 58.4523 82.8662 58.7489 80.9528 59.1269C80.9251 59.1324 80.8988 59.1365 80.871 59.1393C67.8598 61.3478 54.4883 65.2806 54.4883 65.2806C54.4883 65.2806 57.9299 51.3978 68.1217 49.741C73.1136 48.9285 76.9251 49.8362 79.7571 51.3205C78.2677 49.2776 74.9882 46.0538 68.3655 44.2108C68.3655 44.2108 81.0026 41.365 85.9683 49.4362C90.4241 56.6797 98.9255 55.4465 98.9255 55.4465C98.9255 55.4465 107.426 56.6811 111.883 49.4362C116.847 41.365 129.486 44.2108 129.486 44.2108C122.863 46.0538 119.583 49.2762 118.094 51.3205C120.926 49.8376 124.74 48.9299 129.732 49.741C139.924 51.3991 144.507 65.2806 144.507 65.2806Z" fill="#2A272D"/>
<path d="M87.1939 56.8165C85.3789 57.0372 83.539 57.3104 81.7129 57.6166C83.5459 57.2552 85.3928 56.971 87.162 56.7476C87.1814 56.7945 87.1939 56.8165 87.1939 56.8165Z" fill="#2A272D"/>
<path d="M81.6348 57.6287C81.6611 57.6259 81.686 57.6232 81.7123 57.6177C81.686 57.6204 81.6597 57.6259 81.6348 57.6314V57.6287Z" fill="#2A272D"/>
<path d="M116.218 57.6287V57.6314C116.192 57.6259 116.167 57.6204 116.141 57.6177C116.167 57.6232 116.193 57.6259 116.218 57.6287Z" fill="#2A272D"/>
<path d="M160.944 42.3542C160.944 42.3542 135.265 24.4489 96.5634 24.4489C57.858 24.4489 36.416 43.7253 36.416 43.7253C36.416 43.7253 36.7181 41.5362 38.0523 38.0117C38.5247 36.7577 39.1302 35.3314 39.8991 33.774C41.3401 30.8564 43.3574 27.4809 46.1672 23.9123C46.1672 23.9123 58.6492 5.74072 98.8648 5.74072C139.08 5.74072 151.496 22.1714 151.496 22.1714C151.496 22.1714 151.585 22.2693 151.747 22.4556C152.32 23.1273 153.812 24.9634 155.456 27.6947C157.598 31.2565 159.999 36.3439 160.944 42.3542Z" fill="#F8523F"/>
<path d="M82.4817 20.5193C61.4664 23.5927 45.2781 33.093 38.0527 38.0135C38.5252 36.7596 39.1307 35.3332 39.8996 33.7758C64.4133 18.1121 82.4817 20.5193 82.4817 20.5193Z" fill="#AE2424"/>
<path d="M155.457 27.6946C147.394 22.5438 132.361 14.5388 113.4 11.7661C113.4 11.7661 129.415 9.63073 151.748 22.4541C152.322 23.1273 153.814 24.9633 155.457 27.6946Z" fill="#AE2424"/>
</svg>
