<svg width="1047" height="207" viewBox="0 0 1047 207" fill="none" xmlns="http://www.w3.org/2000/svg">
<g style="mix-blend-mode:hard-light">
<path d="M350.454 59.4166C350.454 59.4166 690.211 59.1346 780.969 60.5447C871.728 61.9548 1046.13 42.2133 1046.13 42.2133L990.022 108.601C990.022 108.601 922.272 147.746 771.008 147.746H350.018L350.454 59.4166Z" fill="url(#paint0_linear_161_2608)"/>
<path style="mix-blend-mode:soft-light" d="M350.454 59.4166C350.454 59.4166 690.211 59.1346 780.969 60.5447C871.728 61.9548 1046.13 42.2133 1046.13 42.2133L990.022 108.601C990.022 108.601 922.272 147.746 771.008 147.746H350.018L350.454 59.4166Z" fill="url(#paint1_linear_161_2608)"/>
<g style="mix-blend-mode:soft-light">
<path d="M350.018 62.5722C350.018 62.5722 689.988 73.1871 780.803 74.548C856.013 75.6912 1046.13 42.2133 1046.13 42.2133C1046.13 42.2133 871.619 61.2658 780.803 59.9049C689.988 58.544 350.018 58.8161 350.018 58.8161V62.5722Z" fill="white"/>
</g>
<g style="mix-blend-mode:multiply">
<path d="M351.326 61.796C351.326 61.796 691.297 61.5139 782.112 62.9247C846.381 63.9405 952.634 54.2902 1009.22 48.5902C1031.64 44.8091 1046.13 42.2133 1046.13 42.2133C1046.13 42.2133 871.619 61.9654 780.803 60.5546C689.988 59.1437 350.018 59.4258 350.018 59.4258V63.3198H351.427L351.326 61.796Z" fill="#CDCAC7"/>
</g>
<path d="M357.854 59.0984H16.9785V147.746H357.854V59.0984Z" fill="url(#paint2_linear_161_2608)"/>
<path d="M9.15753 59.0984H16.9785V147.746H9.15753C6.72894 147.746 4.39982 146.069 2.68255 143.084C0.965275 140.099 0.000521916 136.05 0.000521916 131.829V75.1852C-0.0124046 73.0807 0.214905 70.9927 0.669297 69.0419C1.12369 67.0911 1.79614 65.3163 2.64774 63.8203C3.49933 62.3242 4.51317 61.1365 5.63057 60.326C6.74796 59.5155 7.94674 59.0983 9.15753 59.0984Z" fill="url(#paint3_linear_161_2608)"/>
<g style="mix-blend-mode:soft-light">
<path d="M47.5001 104.508L55.3187 131.667L51.0659 146.662H35.4287L47.5001 104.508ZM47.5001 102.924L34.709 147.397H51.0659L55.5804 131.667L47.3038 102.924H47.5001Z" fill="white"/>
<path d="M76.1254 59.5253L64.1521 101.339L56.3008 73.9536L60.4227 59.5253H76.1254ZM76.8124 58.7897H60.0956L55.7773 73.9536L64.1521 102.924L76.8778 58.7897H76.8124Z" fill="white"/>
<path d="M51.0659 59.5253L75.9939 146.662H60.553L35.4287 59.5253H51.0659ZM51.3276 58.7897H34.709L60.2585 147.397H76.6155L51.2622 58.7897H51.3276Z" fill="white"/>
<path d="M89.5382 104.508L97.3568 131.667L93.0386 146.662H77.4668L89.5382 104.508ZM89.5382 102.924L76.8125 147.397H93.1694L97.684 131.667L89.4073 102.924H89.5382Z" fill="white"/>
<path d="M118.162 59.5253L106.124 101.339L98.2724 73.9536L102.394 59.5253H118.162ZM118.849 58.7897H102.133L97.8145 73.9536L106.124 102.924L118.849 58.7897Z" fill="white"/>
<path d="M93.2349 59.5253L118.163 146.662H102.591L77.4668 59.5253H93.2349ZM93.4966 58.7897H76.8125L102.362 147.397H118.719L93.5947 58.7897H93.4966Z" fill="white"/>
<path d="M131.575 104.508L139.394 131.667L135.076 146.662H119.504L131.575 104.508ZM131.575 102.924L118.85 147.397H135.207L139.721 131.667L131.444 102.924H131.575Z" fill="white"/>
<path d="M160.198 59.5253L148.159 101.339L140.308 73.9536L144.43 59.5253H160.198ZM160.885 58.7897H144.168L139.85 73.9536L148.159 102.924L160.885 58.7897Z" fill="white"/>
<path d="M135.272 59.5253L160.2 146.662H144.628L119.504 59.5253H135.272ZM135.534 58.7897H118.85L144.399 147.397H160.756L135.403 58.7897H135.534Z" fill="white"/>
<path d="M173.612 104.508L181.431 131.667L177.113 146.662H161.541L173.612 104.508ZM173.612 102.924L160.887 147.397H177.244L181.922 131.667L173.645 102.924H173.612Z" fill="white"/>
<path d="M202.237 59.5253L190.198 101.339L182.347 73.9536L186.469 59.5253H202.237ZM202.924 58.7897H186.207L181.922 73.9536L190.231 102.924L202.957 58.7897H202.924Z" fill="white"/>
<path d="M177.309 59.5253L202.237 146.662H186.665L161.541 59.5253H177.309ZM177.571 58.7897H160.887L186.436 147.397H202.793L177.44 58.7897H177.571Z" fill="white"/>
<path d="M215.648 104.508L223.466 131.667L219.148 146.662H203.576L215.648 104.508ZM215.648 102.924L202.922 147.397H219.279L223.793 131.667L215.517 102.924H215.648Z" fill="white"/>
<path d="M244.274 59.5253L232.235 101.339L224.449 73.9536L228.571 59.5253H244.274ZM244.961 58.7897H228.244L223.926 73.9536L232.235 102.924L244.961 58.7897Z" fill="white"/>
<path d="M219.344 59.5253L244.272 146.662H228.7L203.576 59.5253H219.344ZM219.606 58.7897H202.922L228.471 147.397H244.828L219.475 58.7897H219.606Z" fill="white"/>
<path d="M257.687 104.508L265.505 131.667L261.187 146.662H245.615L257.687 104.508ZM257.687 102.924L244.961 147.397H261.318L265.832 131.667L257.556 102.924H257.687Z" fill="white"/>
<path d="M286.312 59.5253L274.274 101.339L266.422 73.9536L270.544 59.5253H286.312ZM286.999 58.7897H270.25L265.932 73.9536L274.241 102.924L286.967 58.7897H286.999Z" fill="white"/>
<path d="M261.383 59.5253L286.311 146.662H270.739L245.615 59.5253H261.383ZM261.645 58.7897H244.961L270.51 147.397H286.867L261.514 58.7897H261.645Z" fill="white"/>
<path d="M299.691 104.508L307.509 131.667L303.191 146.662H287.619L299.691 104.508ZM299.691 102.924L286.965 147.397H303.322L307.836 131.667L299.691 102.924Z" fill="white"/>
<path d="M328.35 59.5253L316.311 101.339L308.46 73.9536L312.582 59.5253H328.35ZM329.037 58.7897H312.32L308.002 73.9536L316.311 102.924L329.037 58.7897Z" fill="white"/>
<path d="M303.42 59.5253L328.348 146.662H312.777L287.62 59.5253H303.42ZM303.682 58.7897H286.998L312.548 147.397H328.905L303.551 58.7897H303.682Z" fill="white"/>
<path d="M341.76 104.508L349.579 131.667L345.261 146.662H329.689L341.76 104.508ZM341.76 102.924L329.133 147.397H345.49L350.004 131.667L341.728 102.924H341.76Z" fill="white"/>
<path d="M370.385 59.5253L358.346 101.339L350.495 73.9536L354.617 59.5253H370.385ZM371.072 58.7897H354.355L350.037 73.9536L358.346 102.924L371.072 58.7897Z" fill="white"/>
<path d="M345.49 59.5253L370.418 146.662H354.846L329.722 59.5253H345.49ZM345.751 58.7897H329.133L354.682 147.397H371.039L345.686 58.7897H345.751Z" fill="white"/>
</g>
<path style="mix-blend-mode:overlay" d="M357.854 59.0984H16.9785V147.746H357.854V59.0984Z" fill="url(#paint4_linear_161_2608)"/>
<path opacity="0.7" d="M34.6105 59.0984L47.0178 103.45L34.6105 147.746L22.2031 103.45L34.6105 59.0984Z" fill="black"/>
<path opacity="0.7" d="M77.0564 59.0984L90.1168 103.45L77.0564 147.746L63.9961 103.45L77.0564 59.0984Z" fill="black"/>
<path opacity="0.7" d="M118.849 59.0984L131.91 103.45L118.849 147.746L105.789 103.45L118.849 59.0984Z" fill="black"/>
<path opacity="0.7" d="M160.642 59.0984L173.703 103.45L160.642 147.746L147.582 103.45L160.642 59.0984Z" fill="black"/>
<path opacity="0.7" d="M203.089 59.0984L215.496 103.45L203.089 147.746L190.682 103.45L203.089 59.0984Z" fill="black"/>
<path opacity="0.7" d="M244.882 59.0984L257.289 103.45L244.882 147.746L232.475 103.45L244.882 59.0984Z" fill="black"/>
<path opacity="0.7" d="M287.328 59.0984L300.388 103.45L287.328 147.746L274.268 103.45L287.328 59.0984Z" fill="black"/>
<path opacity="0.7" d="M329.121 59.0984L342.181 103.45L329.121 147.746L316.061 103.45L329.121 59.0984Z" fill="black"/>
<g style="mix-blend-mode:multiply">
<path d="M1001.73 94.455C910.008 126.933 799.298 133.108 647.156 135.052C495.014 136.996 444.121 83.0192 444.121 83.0192H364.108L350.018 130.935V147.746H771.017C922.32 147.746 990.088 108.064 990.088 108.064L1001.73 94.455Z" fill="#F6F5F4"/>
</g>
<path style="mix-blend-mode:multiply" opacity="0.7" d="M9.15753 59.0984H16.9785V147.746H9.15753C6.72894 147.746 4.39982 146.069 2.68255 143.084C0.965275 140.099 0.000521916 136.05 0.000521916 131.829V75.1852C-0.0124046 73.0807 0.214905 70.9927 0.669297 69.0419C1.12369 67.0911 1.79614 65.3163 2.64774 63.8203C3.49933 62.3242 4.51317 61.1365 5.63057 60.326C6.74796 59.5155 7.94674 59.0983 9.15753 59.0984Z" fill="url(#paint5_linear_161_2608)"/>
<path d="M360.624 206.242C357.671 206.242 354.839 204.978 352.751 202.728C350.663 200.479 349.49 197.428 349.49 194.246V11.939C349.49 10.3664 349.779 8.8093 350.339 7.35711C350.899 5.90493 351.72 4.5863 352.754 3.47694C353.789 2.36758 355.017 1.48933 356.367 0.89269C357.718 0.296046 359.164 -0.00731901 360.624 0.000134068C362.079 0.000134068 363.52 0.30894 364.865 0.908921C366.209 1.5089 367.431 2.38835 368.46 3.49697C369.489 4.60559 370.305 5.92175 370.862 7.37024C371.419 8.81872 371.705 10.3712 371.705 11.939V194.246C371.705 197.418 370.539 200.461 368.463 202.709C366.386 204.956 363.568 206.227 360.624 206.242Z" fill="url(#paint6_linear_161_2608)"/>
<path style="mix-blend-mode:multiply" d="M360.624 206.242C357.671 206.242 354.839 204.978 352.751 202.728C350.663 200.479 349.49 197.428 349.49 194.246V11.939C349.49 10.3664 349.779 8.8093 350.339 7.35711C350.899 5.90493 351.72 4.5863 352.754 3.47694C353.789 2.36758 355.017 1.48933 356.367 0.89269C357.718 0.296046 359.164 -0.00731901 360.624 0.000134068C362.079 0.000134068 363.52 0.30894 364.865 0.908921C366.209 1.5089 367.431 2.38835 368.46 3.49697C369.489 4.60559 370.305 5.92175 370.862 7.37024C371.419 8.81872 371.705 10.3712 371.705 11.939V194.246C371.705 197.418 370.539 200.461 368.463 202.709C366.386 204.956 363.568 206.227 360.624 206.242Z" fill="url(#paint7_linear_161_2608)"/>
<path style="mix-blend-mode:multiply" d="M329.121 59.0985V147.746H357.854V59.0985H329.121Z" fill="url(#paint8_linear_161_2608)"/>
</g>
<path opacity="0.72" d="M483.607 112.562C483.607 128.188 475.795 136 460.17 136H432.045V121.938H460.17C466.42 121.938 469.545 118.812 469.545 112.562H432.045V98.5C432.045 82.875 439.857 75.0625 455.482 75.0625H483.607V89.125H455.482C449.232 89.125 446.107 92.25 446.107 98.5H483.607V112.562ZM509.925 89.125V98.5H533.362V89.125H509.925ZM495.862 98.5V75.0625H547.425V98.5C547.425 107.875 542.737 112.562 533.362 112.562H509.925V136H495.862V112.562H491.175V98.5H495.862ZM569.055 89.125V121.938L592.493 121.891V89.125H569.055ZM587.805 75.0156H606.555V136H592.493V135.953L569.055 136H554.993V75.0625H573.743V70.375H587.805V75.0156ZM670.372 75.0625V121.938H675.06V136H670.372C660.997 136 656.31 131.312 656.31 121.938V89.1719C637.591 89.9219 628.216 97.7031 628.185 112.516V136H614.122V75.0625H628.185V82.6094C635.06 77.5781 644.435 75.0625 656.31 75.0625H670.372ZM734.19 112.562C734.19 128.188 726.378 136 710.753 136H682.628V121.938H710.753C717.003 121.938 720.128 118.812 720.128 112.562H682.628V98.5C682.628 82.875 690.44 75.0625 706.065 75.0625H734.19V89.125H706.065C699.815 89.125 696.69 92.25 696.69 98.5H734.19V112.562ZM755.82 89.125V121.938L779.258 121.891V89.125H755.82ZM774.57 75.0156H793.32V136H779.258V135.953L755.82 136H741.758V75.0625H760.508V70.375H774.57V75.0156ZM819.638 89.125V98.5H843.075V89.125H819.638ZM838.388 112.562C838.388 118.812 841.513 121.938 847.763 121.938H857.138V136H847.763C832.138 136 824.325 128.188 824.325 112.562H819.638V136H805.575V112.562H800.888V98.5H805.575V75.0625H857.138V98.5C857.138 107.875 852.45 112.562 843.075 112.562H838.388ZM916.268 112.562C916.268 128.188 908.455 136 892.83 136H864.705V121.938H892.83C899.08 121.938 902.205 118.812 902.205 112.562H864.705V98.5C864.705 82.875 872.518 75.0625 888.143 75.0625H916.268V89.125H888.143C881.893 89.125 878.768 92.25 878.768 98.5H916.268V112.562Z" fill="#710000"/>
<defs>
<linearGradient id="paint0_linear_161_2608" x1="350.051" y1="94.9514" x2="1046.17" y2="94.9514" gradientUnits="userSpaceOnUse">
<stop stop-color="#878375"/>
<stop offset="0.06" stop-color="#A09C8D"/>
<stop offset="0.12" stop-color="#BAB6A7"/>
<stop offset="0.16" stop-color="#C4C0B1"/>
<stop offset="0.29" stop-color="#CECBBD"/>
<stop offset="0.5" stop-color="#DCDACC"/>
<stop offset="0.56" stop-color="#E2E1D5"/>
<stop offset="0.67" stop-color="#E8E9DF"/>
<stop offset="0.82" stop-color="#EAEBE2"/>
<stop offset="0.86" stop-color="#E7E8DF"/>
<stop offset="0.89" stop-color="#DFDFD5"/>
<stop offset="0.92" stop-color="#D0D0C5"/>
<stop offset="0.95" stop-color="#BBBBAE"/>
<stop offset="0.98" stop-color="#A19F90"/>
<stop offset="1" stop-color="#888675"/>
</linearGradient>
<linearGradient id="paint1_linear_161_2608" x1="698.093" y1="144.418" x2="698.093" y2="49.6586" gradientUnits="userSpaceOnUse">
<stop stop-color="#464347"/>
<stop offset="0.06" stop-color="#605E61"/>
<stop offset="0.17" stop-color="#8A888B"/>
<stop offset="0.28" stop-color="#AEADAF"/>
<stop offset="0.4" stop-color="#CCCBCC"/>
<stop offset="0.52" stop-color="#E2E2E2"/>
<stop offset="0.66" stop-color="#F2F2F3"/>
<stop offset="0.81" stop-color="#FCFCFC"/>
<stop offset="1" stop-color="white"/>
</linearGradient>
<linearGradient id="paint2_linear_161_2608" x1="187.4" y1="145.368" x2="187.4" y2="58.9852" gradientUnits="userSpaceOnUse">
<stop stop-color="#2E220D"/>
<stop offset="0.02" stop-color="#1F1709"/>
<stop offset="0.06" stop-color="#0E0A04"/>
<stop offset="0.1" stop-color="#030201"/>
<stop offset="0.15"/>
<stop offset="0.48" stop-color="#381D00"/>
<stop offset="0.65" stop-color="#4A3E20"/>
<stop offset="0.84" stop-color="#606648"/>
<stop offset="0.88" stop-color="#5E6146"/>
<stop offset="0.92" stop-color="#575341"/>
<stop offset="0.96" stop-color="#4F423A"/>
</linearGradient>
<linearGradient id="paint3_linear_161_2608" x1="8.50578" y1="59.3816" x2="8.50578" y2="148.086" gradientUnits="userSpaceOnUse">
<stop stop-color="#999690"/>
<stop offset="0.01" stop-color="#CBC8C3"/>
<stop offset="0.02" stop-color="#DCDAD4"/>
<stop offset="0.03" stop-color="#E8E6E1"/>
<stop offset="0.04" stop-color="#EFEDE8"/>
<stop offset="0.07" stop-color="#E7E5E0"/>
<stop offset="0.08" stop-color="#D0CEC9"/>
<stop offset="0.1" stop-color="#BEBCB8"/>
<stop offset="0.11" stop-color="#B2B0AC"/>
<stop offset="0.14" stop-color="#ABA9A5"/>
<stop offset="0.2" stop-color="#A9A7A3"/>
<stop offset="0.23" stop-color="#C0BEBA"/>
<stop offset="0.28" stop-color="#D6D4D0"/>
<stop offset="0.33" stop-color="#E6E4E0"/>
<stop offset="0.39" stop-color="#EFEDE9"/>
<stop offset="0.48" stop-color="#F2F0EC"/>
<stop offset="0.54" stop-color="#E6E4DF"/>
<stop offset="0.64" stop-color="#C6C3BD"/>
<stop offset="0.69" stop-color="#B5B1AB"/>
<stop offset="0.7" stop-color="#B0ACA6"/>
<stop offset="0.75" stop-color="#7F7D78"/>
<stop offset="0.8" stop-color="#615F5C"/>
<stop offset="0.82" stop-color="#565451"/>
<stop offset="0.84" stop-color="#5A5855"/>
<stop offset="0.87" stop-color="#676561"/>
<stop offset="0.9" stop-color="#7C7A76"/>
<stop offset="0.92" stop-color="#9A9792"/>
<stop offset="0.95" stop-color="#BFBCB7"/>
<stop offset="0.96" stop-color="#CCC9C3"/>
</linearGradient>
<linearGradient id="paint4_linear_161_2608" x1="187.4" y1="145.368" x2="187.4" y2="58.9852" gradientUnits="userSpaceOnUse">
<stop stop-color="white"/>
<stop offset="0.02" stop-color="#DCDCDC"/>
<stop offset="0.04" stop-color="#B6B6B6"/>
<stop offset="0.06" stop-color="#969696"/>
<stop offset="0.08" stop-color="#7E7E7E"/>
<stop offset="0.1" stop-color="#6D6D6D"/>
<stop offset="0.12" stop-color="#626262"/>
<stop offset="0.15" stop-color="#5F5F5F"/>
<stop offset="0.48" stop-color="#76634F"/>
<stop offset="0.56" stop-color="#8F8070"/>
<stop offset="0.73" stop-color="#D0C9C2"/>
<stop offset="0.84" stop-color="white"/>
<stop offset="0.86" stop-color="#FBFAFA"/>
<stop offset="0.89" stop-color="#EEEDEC"/>
<stop offset="0.92" stop-color="#D9D7D5"/>
<stop offset="0.95" stop-color="#BCB7B4"/>
<stop offset="0.98" stop-color="#97908B"/>
<stop offset="1" stop-color="#726862"/>
</linearGradient>
<linearGradient id="paint5_linear_161_2608" x1="0.000521916" y1="103.45" x2="16.9785" y2="103.45" gradientUnits="userSpaceOnUse">
<stop stop-color="#463537"/>
<stop offset="0.25" stop-color="#999090"/>
<stop offset="0.86" stop-color="white"/>
<stop offset="0.91" stop-color="#FDFDFD"/>
<stop offset="0.93" stop-color="#F6F6F6"/>
<stop offset="0.95" stop-color="#EBE9E9"/>
<stop offset="0.96" stop-color="#DAD7D7"/>
<stop offset="0.98" stop-color="#C5C0C0"/>
<stop offset="0.99" stop-color="#AAA3A3"/>
<stop offset="1" stop-color="#867B7C"/>
</linearGradient>
<linearGradient id="paint6_linear_161_2608" x1="349.543" y1="103.093" x2="371.705" y2="103.093" gradientUnits="userSpaceOnUse">
<stop stop-color="#979592"/>
<stop offset="0.01" stop-color="#7D7C79"/>
<stop offset="0.03" stop-color="#575654"/>
<stop offset="0.05" stop-color="#373736"/>
<stop offset="0.08" stop-color="#1F1F1E"/>
<stop offset="0.1" stop-color="#0E0D0D"/>
<stop offset="0.12" stop-color="#030303"/>
<stop offset="0.15"/>
<stop offset="0.48" stop-color="#76634F"/>
<stop offset="0.58" stop-color="#8E7E70"/>
<stop offset="0.8" stop-color="#CBC2C2"/>
<stop offset="0.84" stop-color="#D6CED1"/>
<stop offset="0.87" stop-color="#D2CACC"/>
<stop offset="0.9" stop-color="#C5BDBE"/>
<stop offset="0.93" stop-color="#B0A7A7"/>
<stop offset="0.97" stop-color="#938A87"/>
<stop offset="1" stop-color="#726862"/>
</linearGradient>
<linearGradient id="paint7_linear_161_2608" x1="360.572" y1="208.279" x2="360.572" y2="-0.2262" gradientUnits="userSpaceOnUse">
<stop stop-color="#6F4C18"/>
<stop offset="0.02" stop-color="#846639"/>
<stop offset="0.04" stop-color="#9D8662"/>
<stop offset="0.06" stop-color="#B5A388"/>
<stop offset="0.09" stop-color="#C9BCA8"/>
<stop offset="0.12" stop-color="#DAD1C4"/>
<stop offset="0.15" stop-color="#E8E2DA"/>
<stop offset="0.19" stop-color="#F2EFEB"/>
<stop offset="0.24" stop-color="#FAF8F6"/>
<stop offset="0.31" stop-color="#FEFEFD"/>
<stop offset="0.5" stop-color="white"/>
<stop offset="0.68" stop-color="#FEFEFD"/>
<stop offset="0.75" stop-color="#FAF8F6"/>
<stop offset="0.8" stop-color="#F2EFEA"/>
<stop offset="0.84" stop-color="#E7E2D9"/>
<stop offset="0.88" stop-color="#DAD0C3"/>
<stop offset="0.91" stop-color="#C8BBA7"/>
<stop offset="0.94" stop-color="#B4A287"/>
<stop offset="0.96" stop-color="#9C8461"/>
<stop offset="0.99" stop-color="#826437"/>
<stop offset="1" stop-color="#6F4C18"/>
</linearGradient>
<linearGradient id="paint8_linear_161_2608" x1="357.755" y1="103.422" x2="328.563" y2="103.422" gradientUnits="userSpaceOnUse">
<stop stop-color="#6F4C18"/>
<stop offset="0.02" stop-color="#745220"/>
<stop offset="0.17" stop-color="#987F5A"/>
<stop offset="0.32" stop-color="#B8A68D"/>
<stop offset="0.47" stop-color="#D1C6B6"/>
<stop offset="0.62" stop-color="#E5DFD6"/>
<stop offset="0.75" stop-color="#F3F1ED"/>
<stop offset="0.89" stop-color="#FCFBFA"/>
<stop offset="1" stop-color="white"/>
</linearGradient>
</defs>
</svg>
