<svg width="83" height="78" viewBox="0 0 83 78" fill="none" xmlns="http://www.w3.org/2000/svg">
<path d="M33.887 41.8124L10.8047 63.52L15.5923 68.5664L38.6746 46.8588L33.887 41.8124Z" fill="#F8523F"/>
<path d="M31.1903 53.8619L25.9102 54.0537L26.402 48.8159L31.7154 43.8857L36.4691 48.8973L31.1903 53.8619Z" fill="#AE2424"/>
<path d="M13.2203 61.2134L10.7734 63.5143L15.5618 68.5603L17.9434 66.3201C17.5901 65.1724 16.975 64.0854 16.091 63.1542C15.2583 62.2769 14.276 61.63 13.2203 61.2134Z" fill="#AE2424"/>
<path d="M3.44898 64.1251C0.208293 67.1723 0.062835 72.2569 3.12341 75.4821C6.18399 78.7086 11.291 78.8535 14.5303 75.8063C17.7709 72.759 17.9164 67.6744 14.8558 64.4492C11.7966 61.2227 6.68967 61.0765 3.44898 64.1251ZM6.51787 67.3599C7.96156 66.0025 10.2435 66.0673 11.6068 67.5047C12.9702 68.9421 12.905 71.2141 11.4613 72.5714C10.0176 73.9288 7.73575 73.864 6.37242 72.4266C5.01047 70.9892 5.07556 68.7173 6.51787 67.3599Z" fill="#737373"/>
<path d="M23.3486 53.3249L22.3867 54.2295L25.5787 57.5941L26.5407 56.6895L23.3486 53.3249Z" fill="#AE2424"/>
<path d="M20.1807 56.3034L19.2188 57.208L22.4108 60.5726L23.3727 59.668L20.1807 56.3034Z" fill="#AE2424"/>
<path d="M17.0108 59.2682L16.0488 60.1729L19.2409 63.5375L20.2028 62.6328L17.0108 59.2682Z" fill="#AE2424"/>
<path d="M29.9975 32.5063L28.9196 49.3646L28.8988 49.7191L28.8891 49.8612L28.8767 50.0212L28.7949 51.34L30.1403 51.3317L30.283 51.3303L30.7817 51.3275L36.4221 51.2917L43.5062 51.2434L47.7486 51.2172L53.2754 43.244L56.1475 39.1001L63.4075 28.6273L71.1386 17.4744L82.9999 0.362305L79.2882 2.61078L71.4282 7.37681L63.8841 11.9511L56.8028 16.2467L54 17.9475L44.2932 23.8351L37.0844 28.2052L29.9975 32.5063Z" fill="#737373"/>
<path d="M63.8848 11.9512L63.4082 28.6274L71.1393 17.4746L71.2321 14.2356L71.4289 7.37695L63.8848 11.9512Z" fill="#413E44"/>
<path d="M54 17.9479L53.2754 43.2444L56.1475 39.1005L56.8029 16.2471L54 17.9479Z" fill="#413E44"/>
<path d="M37.0861 28.2056L36.4238 51.2921L43.5079 51.2438L44.2949 23.8354L37.0861 28.2056Z" fill="#413E44"/>
<path d="M58.0955 22.2602L28.8988 49.7195L28.8891 49.8616L28.8767 50.0216L28.7949 51.3404L30.1403 51.3321L59.4893 23.7293L61.932 20.042L58.0955 22.2602Z" fill="#ABABAB"/>
</svg>
