<svg width="1126" height="561" viewBox="0 0 1126 561" fill="none" xmlns="http://www.w3.org/2000/svg">
<path d="M564.614 0.246545L566.579 1.2285C619.961 79.354 645.338 119.328 642.712 121.151L596.247 144.173C633.491 146.061 659.713 150.802 674.914 158.396L678.452 160.163C685.266 163.567 690.091 180.736 692.925 211.669C697.618 229.424 704.157 240.397 712.544 244.586L710.575 245.562C674.386 240.544 640.435 230.113 608.723 214.271L603.612 211.718L583.959 199.941C583.315 433.141 581.812 550.326 579.449 551.497L570.786 555.789C561.865 557.34 554.129 556.479 547.577 553.206C542.597 550.719 541.471 517.635 544.198 453.957L543.123 149.371L484.154 119.912C481.271 118.472 508.091 78.5836 564.614 0.246545ZM566.498 50.9483L564.529 51.9238C564.736 85.9843 562.87 103.99 558.932 105.941L557.357 106.721C553.682 108.542 539.907 111.195 516.032 114.679L519.57 116.447C557.093 107.765 582.8 106.894 596.691 113.833C599.053 112.923 604.297 113.845 612.424 116.599L614.393 115.624L612.82 114.838C592.628 111.803 580.698 109.37 577.028 107.537L573.49 105.769C566.676 102.365 564.869 84.3533 568.07 51.7339L566.498 50.9483Z" fill="black"/>
</svg>
