<svg width="1728" height="892" viewBox="0 0 1728 892" fill="none" xmlns="http://www.w3.org/2000/svg">
<path d="M1728 745.591V891.978H-236.532V802.243C152.376 793.564 535.103 704.775 925.408 692.517C1194.33 684.08 1462.15 712.081 1728 745.591Z" fill="url(#paint0_radial_110_2257)"/>
<path d="M245.754 404.555C245.754 404.555 -42.756 406.632 -209.855 364.5L-203.902 387.239L-187.826 390.187L-164.82 430.632H-151.709V437.92H-144.904V430.762H-140.368L-136.704 423.993V440.646H-105.348L-93.2343 469.074H33.7847V488.508H42.8824V491.067L4.94623 506.922V512.968H-106.27V519.736H-97.1725V541.5H42.8824V798.787H80.0459H83.8844H100.186V655.998L83.8844 645.539V545.197H246.098H408.31V645.539L392.009 655.998V798.787H408.31H412.149H449.312V545.216H589.367V519.736H598.465V512.968H487.249V506.922L449.312 491.067V488.508H458.41V469.092H585.429L597.543 440.664H628.899V424.012L632.563 430.78H637.099V437.938H643.904V430.65H657.014L680.02 390.206L696.097 387.257L701.68 369.751C534.631 411.865 245.754 404.555 245.754 404.555ZM42.8824 510.112H10.4298V509.296L42.8824 495.74V510.112ZM116.362 510.928H83.9093V495.74L116.362 509.296V510.928ZM83.9093 491.067V488.508H93.007V469.092H218.855V492.94H201.731V512.968H121.846V506.922L83.9093 491.067ZM408.31 510.928H375.858V509.296L408.31 495.74V510.928ZM408.31 491.067L370.374 506.922V512.968H290.49V492.94H273.366V469.092H399.213V488.508H408.31V491.067ZM481.79 509.296V510.928H449.337V495.74L481.79 509.296Z" fill="url(#paint1_radial_110_2257)"/>
<path d="M65.2717 791.778C64.5489 789.015 63.0783 786.382 60.9846 784.045C61.832 784.899 62.6795 785.752 63.527 786.605C62.1062 782.191 59.3146 778.019 55.4263 774.532C60.0873 778.482 63.8011 783.063 66.3186 787.977C66.2438 787.383 66.194 786.771 66.1192 786.178C66.5429 786.809 66.9666 787.439 67.3654 788.07C67.3405 783.396 66.3684 778.723 64.4741 774.254C67.0913 778.297 69.2099 782.543 70.7553 786.883C70.6057 782.543 70.9298 778.186 71.7772 773.902C72.1511 778.334 72.525 782.766 72.8739 787.217C72.9736 784.027 74.2947 780.856 76.6127 778.167C75.2668 782.043 75.2169 786.16 76.4133 790.072C72.8989 791.018 69.0853 791.519 65.2717 791.778Z" fill="url(#paint2_radial_110_2257)"/>
<path d="M4.55359 796.933C5.2515 791.889 7.04611 786.938 9.81281 782.302C7.8188 786.363 7.04609 790.777 7.56952 795.079C8.11788 793.929 8.66624 792.798 9.2146 791.648C9.28937 791.982 9.38909 792.334 9.46386 792.668C11.2585 787.476 12.2305 782.135 12.3552 776.776C12.405 781.356 12.4798 785.937 12.5297 790.536C12.8786 789.924 13.2276 789.293 13.5765 788.681C13.7261 789.738 13.8756 790.777 14.0002 791.834C16.8916 786.252 19.8078 780.652 22.6992 775.07C19.9823 781.542 18.9604 788.403 19.6832 795.153C20.6054 792.983 21.428 790.591 22.3502 788.44C22.425 789.46 22.4997 790.461 22.5745 791.481C24.1947 788.347 24.9674 784.972 24.8427 781.616C25.0671 786.029 25.2664 790.424 25.4908 794.838C25.5406 795.895 24.4938 796.6 23.2724 797.156C22.076 797.712 20.6303 797.898 19.2096 798.009C14.7231 798.38 9.04013 797.657 4.55359 796.933Z" fill="url(#paint3_radial_110_2257)"/>
<path d="M99.7179 789.943C99.02 780.782 101.861 771.51 107.794 763.462C104.379 769.285 102.784 775.701 103.158 782.043C104.055 779.688 104.977 777.333 105.874 774.996C105.924 777.463 105.974 779.929 106.024 782.396C109.489 777.24 112.23 771.788 114.15 766.206C112.679 771.492 111.184 776.758 109.713 782.043C111.109 780.189 112.455 778.316 113.875 776.461C113.502 778.483 113.103 780.504 112.729 782.525C115.371 778.186 118.686 774.069 122.599 770.305C119.234 775.312 117.415 780.875 117.29 786.457C111.458 787.402 105.6 789.516 99.7179 789.943Z" fill="url(#paint4_radial_110_2257)"/>
<path d="M442.091 745.085C442.715 736.443 446.005 727.913 451.638 720.329C448.722 726.133 447.226 732.456 447.5 738.65C448.173 736.814 448.846 734.978 449.544 733.143C449.743 734.663 449.918 736.202 450.117 737.723C452.46 733.959 454.355 730.009 455.701 725.985C454.579 729.73 454.105 733.272 454.056 737.13C455.252 735.998 456.423 734.867 457.62 733.736C457.445 736.017 457.246 738.298 457.072 740.597C459.439 738.335 461.134 735.72 461.633 732.864C461.184 735.423 460.736 737.964 460.287 740.523C462.854 734.292 466.593 728.358 470.73 722.61C468.861 728.08 467.69 733.68 467.316 739.318C468.512 736.944 469.933 734.608 471.129 732.234C470.855 734.237 470.606 736.239 470.332 738.242C472.052 736.406 473.771 734.57 475.491 732.753C475.092 736.073 474.694 739.392 474.27 742.711C463.477 744.047 453.034 744.937 442.091 745.085Z" fill="url(#paint5_radial_110_2257)"/>
<path d="M839.971 708.033C840.793 696.796 845.056 685.725 852.359 675.878C848.57 683.425 846.626 691.622 846.975 699.67C847.847 697.278 848.744 694.904 849.617 692.531C849.866 694.515 850.09 696.499 850.34 698.483C853.406 693.588 855.823 688.469 857.618 683.24C856.147 688.117 855.549 692.716 855.474 697.704C857.02 696.239 858.565 694.774 860.11 693.309C859.861 696.276 859.637 699.243 859.388 702.211C862.478 699.281 864.647 695.868 865.32 692.178C864.747 695.498 864.148 698.798 863.575 702.118C866.89 694.033 871.751 686.318 877.134 678.864C874.692 685.966 873.196 693.254 872.673 700.579C874.218 697.482 876.087 694.459 877.633 691.381C877.284 693.977 876.935 696.592 876.611 699.188C878.854 696.814 881.097 694.422 883.316 692.048C882.792 696.351 882.269 700.671 881.746 704.974C867.738 706.661 854.178 707.848 839.971 708.033Z" fill="url(#paint6_radial_110_2257)"/>
<path d="M729.904 718.752C729.081 707.514 724.819 696.443 717.516 686.596C721.304 694.144 723.249 702.34 722.9 710.388C722.027 707.996 721.13 705.622 720.257 703.23C720.008 705.214 719.784 707.199 719.535 709.183C716.469 704.287 714.051 699.169 712.257 693.94C713.727 698.817 714.325 703.416 714.4 708.404C712.855 706.939 711.309 705.474 709.764 704.009C710.013 706.976 710.238 709.943 710.487 712.91C707.396 709.98 705.228 706.568 704.555 702.878C705.128 706.197 705.726 709.498 706.299 712.818C702.984 704.732 698.124 697.018 692.74 689.563C695.183 696.666 696.678 703.953 697.202 711.278C695.656 708.182 693.787 705.159 692.242 702.081C692.59 704.677 692.939 707.291 693.263 709.888C691.02 707.514 688.777 705.122 686.559 702.748C687.082 707.05 687.605 711.371 688.129 715.673C702.137 717.398 715.696 718.566 729.904 718.752Z" fill="url(#paint7_radial_110_2257)"/>
<path d="M375.242 752.428C373.123 748.385 369.659 744.751 365.197 741.951C367.74 743.694 370.282 745.437 372.824 747.18C366.992 737.574 358.094 729.007 347.102 722.368C358.044 727.672 367.665 734.496 375.292 742.396C374.22 738.353 373.173 734.329 372.102 730.286C374.345 734.218 376.588 738.168 378.831 742.117C378.009 732.512 378.831 722.813 381.274 713.355C381.523 723.406 383.667 733.42 387.605 743.026C388.203 740.634 388.801 738.223 389.425 735.831C390.272 737.852 391.12 739.874 391.967 741.895C393.737 733.68 394.634 725.353 394.609 717.046C396.379 725.706 398.273 734.31 400.018 742.97C401.538 739.521 402.535 736.053 404.056 732.604C403.632 736.888 403.208 741.153 402.785 745.437C404.654 741.543 407.321 737.871 410.611 734.533C409.34 739.243 408.094 743.953 406.822 748.663C395.606 749.943 386.483 751.111 375.242 752.428Z" fill="url(#paint8_radial_110_2257)"/>
<path d="M360.437 729.489C354.679 722.275 347.151 715.711 337.605 711.26C353.881 722.127 363.851 738.038 365.496 754.264C359.041 744.25 350.965 734.848 341.369 726.337C335.81 727.023 330.327 728.729 326.065 731.455C321.778 734.199 318.537 737.815 316.792 741.802C320.232 735.85 327.859 731.381 336.458 730.472C343.089 739.41 349.993 748.219 356.623 757.176L356.199 758.715C359.664 758.474 363.178 758.214 366.444 757.324C369.709 756.434 372.45 754.82 373.996 752.484C370.257 744.584 366.194 736.703 360.437 729.489Z" fill="url(#paint9_radial_110_2257)"/>
<path d="M479.953 742.915C478.258 724 483.592 704.751 495.182 687.857C489.549 705.808 487.38 724.389 489.05 742.785C486.159 742.544 482.869 743.156 479.953 742.915Z" fill="url(#paint10_radial_110_2257)"/>
<path d="M524.593 713.986C518.013 707.977 508.217 704.065 497.823 703.583C489.473 715.154 486.233 728.728 488.676 741.746L496.104 739.781C494.857 729.377 496.801 718.659 501.861 708.886C509.713 709.591 517.539 711.297 524.593 713.986Z" fill="url(#paint11_radial_110_2257)"/>
<path d="M475.892 716.378C473.374 712.78 470.383 709.276 466.146 706.735C459.042 702.451 448.424 701.543 440.124 704.361C444.785 702.971 450.244 703.453 454.68 705.196C459.117 706.939 462.632 709.832 465.124 713.059C467.617 716.304 469.187 719.901 470.458 723.518C472.651 729.841 473.973 736.331 474.346 742.859L486.659 741.839C485.114 732.956 481.45 724.296 475.892 716.378Z" fill="url(#paint12_radial_110_2257)"/>
<path d="M142.117 784.287C148.423 760.013 145.706 734.496 134.39 711.26C137.78 735.164 136.509 759.438 130.352 783.026C134.166 783.063 138.279 784.268 142.117 784.287Z" fill="url(#paint13_radial_110_2257)"/>
<path d="M86.6349 757.38C92.5671 748.293 103.434 741.154 116.396 738.224C131.65 751.038 141.221 767.542 143.34 784.584L133.145 783.749C130.553 770.268 123.749 757.102 113.43 745.845C103.759 748.497 94.4863 752.41 86.6349 757.38Z" fill="url(#paint14_radial_110_2257)"/>
<path d="M153.133 750.462C157.171 746.123 161.782 741.95 167.814 739.169C177.933 734.495 191.842 734.588 201.986 739.243C196.253 736.888 189.1 736.869 182.968 738.575C176.837 740.281 171.677 743.601 167.739 747.495C163.801 751.389 160.984 755.84 158.566 760.365C154.354 768.264 151.238 776.516 149.319 784.898L133.616 782.098C137.604 770.805 144.234 760.049 153.133 750.462Z" fill="url(#paint15_radial_110_2257)"/>
<path d="M1426.71 733.086C1427.56 723.814 1422 714.338 1412.3 708.497C1419.71 711.167 1425.56 716.118 1428.51 721.83C1428.18 719.512 1427.73 717.194 1427.43 714.876C1428.48 716.619 1429.53 718.344 1430.55 720.087C1431.7 710.073 1436.01 700.263 1443.04 691.677C1437.4 701.728 1435.09 712.78 1436.98 723.573C1438.3 721.385 1439.65 719.512 1440.97 717.324C1440.97 719.493 1440.99 721.645 1440.99 723.814C1447.62 711.927 1459.46 701.246 1473.37 693.587C1462.06 702.896 1453.61 714.153 1448.89 726.225C1456.55 720.18 1462.35 712.762 1465.52 704.788C1464.05 712.855 1460.51 720.717 1455.2 727.82C1458.19 724.945 1461.18 722.071 1464.2 719.197C1463.43 722.053 1462.65 724.908 1461.88 727.746C1470.28 713.596 1489.3 703.397 1509.84 701.061C1492.56 704.324 1477.68 713.504 1468.39 724.816C1471.13 722.683 1473.84 720.569 1476.59 718.436C1475.66 721.441 1474.72 724.426 1473.8 727.43C1480.4 724.667 1485.68 720.198 1488.58 714.987C1490.42 723.332 1489.95 731.695 1487.23 739.911C1466.47 737.889 1447.47 735.126 1426.71 733.086Z" fill="url(#paint16_radial_110_2257)"/>
<path d="M508.618 709.22C510.786 704.566 514.575 700.337 519.51 697.055C517.516 702.025 514.126 706.049 508.618 709.22Z" fill="url(#paint17_radial_110_2257)"/>
<path d="M688.601 675.451C690.545 673.189 693.262 671.316 696.427 670.037C694.508 672.484 692.04 674.302 688.601 675.451Z" fill="url(#paint18_radial_110_2257)"/>
<path d="M570.28 525.522C572.224 523.26 574.941 521.387 578.107 520.107C576.188 522.555 573.72 524.373 570.28 525.522Z" fill="url(#paint19_radial_110_2257)"/>
<path d="M485.811 689.49C483.069 685.503 483.243 680.477 486.234 676.602C487.181 680.737 487.082 685.373 485.811 689.49Z" fill="url(#paint20_radial_110_2257)"/>
<path d="M648.722 587.218C645.98 583.231 646.154 578.205 649.145 574.33C650.093 578.465 649.993 583.12 648.722 587.218Z" fill="url(#paint21_radial_110_2257)"/>
<path d="M626.814 642.629C620.907 641.794 615.672 638.642 613.354 634.488C618.339 636.491 623.225 639.383 626.814 642.629Z" fill="url(#paint22_radial_110_2257)"/>
<path d="M349.295 688.043C347.775 683.37 344.061 679.086 338.901 676.175C338.702 678.53 339.325 680.941 340.995 682.943C342.69 684.965 346.354 687.134 349.295 688.043Z" fill="url(#paint23_radial_110_2257)"/>
<path d="M535.535 661.524C536.881 659.726 538.925 658.186 541.317 657.148C540.295 659.281 538.351 660.671 535.535 661.524Z" fill="url(#paint24_radial_110_2257)"/>
<path d="M281.624 607.895C282.969 606.097 285.013 604.558 287.406 603.519C286.359 605.652 284.415 607.042 281.624 607.895Z" fill="url(#paint25_radial_110_2257)"/>
<path d="M637.903 698.687C636.209 695.998 635.735 693.235 636.508 690.509C638.726 693.087 638.876 696.017 637.903 698.687Z" fill="url(#paint26_radial_110_2257)"/>
<path d="M526.138 647.579C524.618 645.169 522.35 643.018 519.533 641.349C519.309 642.758 519.683 644.204 520.68 645.41C521.701 646.597 524.344 647.116 526.138 647.579Z" fill="url(#paint27_radial_110_2257)"/>
<path d="M720.307 624.307C718.786 621.896 716.518 619.745 713.702 618.076C713.477 619.485 713.851 620.931 714.848 622.137C715.87 623.324 718.512 623.861 720.307 624.307Z" fill="url(#paint28_radial_110_2257)"/>
<path d="M162.729 719.512C163.277 717.083 165.495 714.895 168.511 713.838C168.711 716.212 165.62 718.492 162.729 719.512Z" fill="url(#paint29_radial_110_2257)"/>
<path d="M189.4 728.877C193.463 727.894 197.924 727.894 201.987 728.877C197.85 729.786 193.562 729.712 189.4 728.877Z" fill="url(#paint30_radial_110_2257)"/>
<path d="M230.624 708.813C229.877 704.956 230.799 700.932 233.167 697.464C233.266 701.358 232.918 705.308 230.624 708.813Z" fill="url(#paint31_radial_110_2257)"/>
<path d="M239 742.748C242.913 740.152 247.923 738.501 253.133 738.056C248.821 740.263 244.209 742.229 239 742.748Z" fill="url(#paint32_radial_110_2257)"/>
<path d="M231.897 652.698C226.762 651.937 221.952 649.972 218.338 647.153C223.323 648.377 228.208 649.916 231.897 652.698Z" fill="url(#paint33_radial_110_2257)"/>
<defs>
<radialGradient id="paint0_radial_110_2257" cx="0" cy="0" r="1" gradientUnits="userSpaceOnUse" gradientTransform="translate(1321.89 -112.791) scale(1731.37 1288.12)">
<stop stop-color="#363636"/>
<stop offset="1"/>
</radialGradient>
<radialGradient id="paint1_radial_110_2257" cx="0" cy="0" r="1" gradientUnits="userSpaceOnUse" gradientTransform="translate(1323.92 -105.77) scale(1731.38 1288.13)">
<stop stop-color="#363636"/>
<stop offset="1"/>
</radialGradient>
<radialGradient id="paint2_radial_110_2257" cx="0" cy="0" r="1" gradientUnits="userSpaceOnUse" gradientTransform="translate(1323.92 -105.775) scale(1731.38 1288.13)">
<stop stop-color="#363636"/>
<stop offset="1"/>
</radialGradient>
<radialGradient id="paint3_radial_110_2257" cx="0" cy="0" r="1" gradientUnits="userSpaceOnUse" gradientTransform="translate(1323.92 -105.763) scale(1731.37 1288.12)">
<stop stop-color="#363636"/>
<stop offset="1"/>
</radialGradient>
<radialGradient id="paint4_radial_110_2257" cx="0" cy="0" r="1" gradientUnits="userSpaceOnUse" gradientTransform="translate(1323.92 -105.763) scale(1731.37 1288.12)">
<stop stop-color="#363636"/>
<stop offset="1"/>
</radialGradient>
<radialGradient id="paint5_radial_110_2257" cx="0" cy="0" r="1" gradientUnits="userSpaceOnUse" gradientTransform="translate(1323.92 -105.764) scale(1731.37 1288.12)">
<stop stop-color="#363636"/>
<stop offset="1"/>
</radialGradient>
<radialGradient id="paint6_radial_110_2257" cx="0" cy="0" r="1" gradientUnits="userSpaceOnUse" gradientTransform="translate(1323.92 -105.766) scale(1731.37 1288.12)">
<stop stop-color="#363636"/>
<stop offset="1"/>
</radialGradient>
<radialGradient id="paint7_radial_110_2257" cx="0" cy="0" r="1" gradientUnits="userSpaceOnUse" gradientTransform="translate(1323.92 -105.768) scale(1731.37 1288.13)">
<stop stop-color="#363636"/>
<stop offset="1"/>
</radialGradient>
<radialGradient id="paint8_radial_110_2257" cx="0" cy="0" r="1" gradientUnits="userSpaceOnUse" gradientTransform="translate(1323.91 -105.766) scale(1731.36 1288.12)">
<stop stop-color="#363636"/>
<stop offset="1"/>
</radialGradient>
<radialGradient id="paint9_radial_110_2257" cx="0" cy="0" r="1" gradientUnits="userSpaceOnUse" gradientTransform="translate(1323.92 -105.765) scale(1731.36 1288.12)">
<stop stop-color="#363636"/>
<stop offset="1"/>
</radialGradient>
<radialGradient id="paint10_radial_110_2257" cx="0" cy="0" r="1" gradientUnits="userSpaceOnUse" gradientTransform="translate(1323.91 -105.766) scale(1731.37 1288.12)">
<stop stop-color="#363636"/>
<stop offset="1"/>
</radialGradient>
<radialGradient id="paint11_radial_110_2257" cx="0" cy="0" r="1" gradientUnits="userSpaceOnUse" gradientTransform="translate(1323.91 -105.77) scale(1731.37 1288.12)">
<stop stop-color="#363636"/>
<stop offset="1"/>
</radialGradient>
<radialGradient id="paint12_radial_110_2257" cx="0" cy="0" r="1" gradientUnits="userSpaceOnUse" gradientTransform="translate(1323.92 -105.766) scale(1731.37 1288.12)">
<stop stop-color="#363636"/>
<stop offset="1"/>
</radialGradient>
<radialGradient id="paint13_radial_110_2257" cx="0" cy="0" r="1" gradientUnits="userSpaceOnUse" gradientTransform="translate(1323.92 -105.766) scale(1731.37 1288.12)">
<stop stop-color="#363636"/>
<stop offset="1"/>
</radialGradient>
<radialGradient id="paint14_radial_110_2257" cx="0" cy="0" r="1" gradientUnits="userSpaceOnUse" gradientTransform="translate(1323.92 -105.765) scale(1731.38 1288.13)">
<stop stop-color="#363636"/>
<stop offset="1"/>
</radialGradient>
<radialGradient id="paint15_radial_110_2257" cx="0" cy="0" r="1" gradientUnits="userSpaceOnUse" gradientTransform="translate(1323.92 -105.769) scale(1731.37 1288.12)">
<stop stop-color="#363636"/>
<stop offset="1"/>
</radialGradient>
<radialGradient id="paint16_radial_110_2257" cx="0" cy="0" r="1" gradientUnits="userSpaceOnUse" gradientTransform="translate(1323.92 -105.765) scale(1731.36 1288.12)">
<stop stop-color="#363636"/>
<stop offset="1"/>
</radialGradient>
<radialGradient id="paint17_radial_110_2257" cx="0" cy="0" r="1" gradientUnits="userSpaceOnUse" gradientTransform="translate(1323.93 -105.763) scale(1731.37 1288.12)">
<stop stop-color="#363636"/>
<stop offset="1"/>
</radialGradient>
<radialGradient id="paint18_radial_110_2257" cx="0" cy="0" r="1" gradientUnits="userSpaceOnUse" gradientTransform="translate(1323.91 -105.761) scale(1731.37 1288.11)">
<stop stop-color="#363636"/>
<stop offset="1"/>
</radialGradient>
<radialGradient id="paint19_radial_110_2257" cx="0" cy="0" r="1" gradientUnits="userSpaceOnUse" gradientTransform="translate(1323.91 -105.783) scale(1731.4 1288.13)">
<stop stop-color="#363636"/>
<stop offset="1"/>
</radialGradient>
<radialGradient id="paint20_radial_110_2257" cx="0" cy="0" r="1" gradientUnits="userSpaceOnUse" gradientTransform="translate(1323.92 -105.766) scale(1731.36 1288.12)">
<stop stop-color="#363636"/>
<stop offset="1"/>
</radialGradient>
<radialGradient id="paint21_radial_110_2257" cx="0" cy="0" r="1" gradientUnits="userSpaceOnUse" gradientTransform="translate(1323.92 -105.767) scale(1731.37 1288.12)">
<stop stop-color="#363636"/>
<stop offset="1"/>
</radialGradient>
<radialGradient id="paint22_radial_110_2257" cx="0" cy="0" r="1" gradientUnits="userSpaceOnUse" gradientTransform="translate(1323.92 -105.775) scale(1730.85 1287.72)">
<stop stop-color="#363636"/>
<stop offset="1"/>
</radialGradient>
<radialGradient id="paint23_radial_110_2257" cx="0" cy="0" r="1" gradientUnits="userSpaceOnUse" gradientTransform="translate(1323.91 -105.771) scale(1731.37 1288.13)">
<stop stop-color="#363636"/>
<stop offset="1"/>
</radialGradient>
<radialGradient id="paint24_radial_110_2257" cx="0" cy="0" r="1" gradientUnits="userSpaceOnUse" gradientTransform="translate(1323.94 -105.757) scale(1731.38 1288.12)">
<stop stop-color="#363636"/>
<stop offset="1"/>
</radialGradient>
<radialGradient id="paint25_radial_110_2257" cx="0" cy="0" r="1" gradientUnits="userSpaceOnUse" gradientTransform="translate(1323.91 -105.766) scale(1731.35 1288.11)">
<stop stop-color="#363636"/>
<stop offset="1"/>
</radialGradient>
<radialGradient id="paint26_radial_110_2257" cx="0" cy="0" r="1" gradientUnits="userSpaceOnUse" gradientTransform="translate(1323.9 -105.776) scale(1731.36 1288.12)">
<stop stop-color="#363636"/>
<stop offset="1"/>
</radialGradient>
<radialGradient id="paint27_radial_110_2257" cx="0" cy="0" r="1" gradientUnits="userSpaceOnUse" gradientTransform="translate(1323.93 -105.757) scale(1731.37 1288.12)">
<stop stop-color="#363636"/>
<stop offset="1"/>
</radialGradient>
<radialGradient id="paint28_radial_110_2257" cx="0" cy="0" r="1" gradientUnits="userSpaceOnUse" gradientTransform="translate(1323.92 -105.786) scale(1731.39 1288.15)">
<stop stop-color="#363636"/>
<stop offset="1"/>
</radialGradient>
<radialGradient id="paint29_radial_110_2257" cx="0" cy="0" r="1" gradientUnits="userSpaceOnUse" gradientTransform="translate(1323.92 -105.757) scale(1731.37 1288.11)">
<stop stop-color="#363636"/>
<stop offset="1"/>
</radialGradient>
<radialGradient id="paint30_radial_110_2257" cx="0" cy="0" r="1" gradientUnits="userSpaceOnUse" gradientTransform="translate(1323.91 -105.758) scale(1731.35 1288.11)">
<stop stop-color="#363636"/>
<stop offset="1"/>
</radialGradient>
<radialGradient id="paint31_radial_110_2257" cx="0" cy="0" r="1" gradientUnits="userSpaceOnUse" gradientTransform="translate(1323.89 -105.77) scale(1731.36 1288.11)">
<stop stop-color="#363636"/>
<stop offset="1"/>
</radialGradient>
<radialGradient id="paint32_radial_110_2257" cx="0" cy="0" r="1" gradientUnits="userSpaceOnUse" gradientTransform="translate(1323.92 -105.748) scale(1731.35 1288.11)">
<stop stop-color="#363636"/>
<stop offset="1"/>
</radialGradient>
<radialGradient id="paint33_radial_110_2257" cx="0" cy="0" r="1" gradientUnits="userSpaceOnUse" gradientTransform="translate(1323.92 -105.774) scale(1731.37 1288.13)">
<stop stop-color="#363636"/>
<stop offset="1"/>
</radialGradient>
</defs>
</svg>
