<svg width="57" height="57" viewBox="0 0 57 57" fill="none" xmlns="http://www.w3.org/2000/svg">
<path fill-rule="evenodd" clip-rule="evenodd" d="M42.75 7.125C44.6397 7.125 46.4519 7.87567 47.7881 9.21186C49.1243 10.5481 49.875 12.3603 49.875 14.25V42.75C49.875 44.6397 49.1243 46.4519 47.7881 47.7881C46.4519 49.1243 44.6397 49.875 42.75 49.875H14.25C12.3603 49.875 10.5481 49.1243 9.21186 47.7881C7.87567 46.4519 7.125 44.6397 7.125 42.75V14.25C7.125 12.3603 7.87567 10.5481 9.21186 9.21186C10.5481 7.87567 12.3603 7.125 14.25 7.125H42.75ZM19 23.75C18.3701 23.75 17.766 24.0002 17.3206 24.4456C16.8752 24.891 16.625 25.4951 16.625 26.125V38C16.625 38.6299 16.8752 39.234 17.3206 39.6794C17.766 40.1248 18.3701 40.375 19 40.375C19.6299 40.375 20.234 40.1248 20.6794 39.6794C21.1248 39.234 21.375 38.6299 21.375 38V26.125C21.375 25.4951 21.1248 24.891 20.6794 24.4456C20.234 24.0002 19.6299 23.75 19 23.75ZM26.125 21.375C25.4951 21.375 24.891 21.6252 24.4456 22.0706C24.0002 22.516 23.75 23.1201 23.75 23.75V38C23.75 38.6299 24.0002 39.234 24.4456 39.6794C24.891 40.1248 25.4951 40.375 26.125 40.375C26.7549 40.375 27.359 40.1248 27.8044 39.6794C28.2498 39.234 28.5 38.6299 28.5 38V29.3075C29.2244 28.4905 30.4475 27.531 31.8084 26.9491C32.5992 26.6119 33.7891 26.4741 34.6156 26.7354C34.8898 26.8049 35.134 26.9616 35.3115 27.1819C35.435 27.3481 35.625 27.7186 35.625 28.5V38C35.625 38.6299 35.8752 39.234 36.3206 39.6794C36.766 40.1248 37.3701 40.375 38 40.375C38.6299 40.375 39.234 40.1248 39.6794 39.6794C40.1248 39.234 40.375 38.6299 40.375 38V28.5C40.375 26.9087 39.9712 25.4932 39.1305 24.358C38.3569 23.3286 37.2741 22.5737 36.0406 22.2039C33.8984 21.5317 31.5258 21.9046 29.9416 22.5839C29.4341 22.8011 28.94 23.0485 28.462 23.3249C28.3624 22.7776 28.074 22.2827 27.6469 21.9264C27.2198 21.5701 26.6812 21.3749 26.125 21.375ZM19 16.625C18.3701 16.625 17.766 16.8752 17.3206 17.3206C16.8752 17.766 16.625 18.3701 16.625 19C16.625 19.6299 16.8752 20.234 17.3206 20.6794C17.766 21.1248 18.3701 21.375 19 21.375C19.6299 21.375 20.234 21.1248 20.6794 20.6794C21.1248 20.234 21.375 19.6299 21.375 19C21.375 18.3701 21.1248 17.766 20.6794 17.3206C20.234 16.8752 19.6299 16.625 19 16.625Z" fill="#F8F8F8"/>
</svg>
