<svg width="62" height="43" viewBox="0 0 62 43" fill="none" xmlns="http://www.w3.org/2000/svg">
<path d="M61.9857 15.1546C62.125 11.1757 61.2434 7.22663 59.4228 3.67401C58.1875 2.21628 56.4732 1.23254 54.5786 0.894213C46.742 0.192385 38.873 -0.0952706 31.0053 0.0324771C23.1662 -0.101069 15.3255 0.177305 7.51646 0.866415C5.97257 1.14361 4.5438 1.85836 3.40451 2.92346C0.869751 5.23069 0.58811 9.178 0.30647 12.5137C-0.102157 18.5113 -0.102157 24.5292 0.30647 30.5268C0.387949 32.4043 0.671177 34.2679 1.15139 36.0864C1.49098 37.4904 2.17803 38.7893 3.15104 39.8669C4.29807 40.9884 5.76011 41.7438 7.34748 42.0351C13.4194 42.7749 19.5375 43.0815 25.6541 42.9525C35.5115 43.0915 44.1579 42.9525 54.3814 42.1741C56.0078 41.9007 57.511 41.1443 58.6905 40.0059C59.479 39.2273 60.068 38.2744 60.4085 37.2261C61.4158 34.1756 61.9105 30.983 61.8731 27.7748C61.9857 26.2181 61.9857 16.8224 61.9857 15.1546ZM24.6402 29.4427V12.2358L41.3133 20.8809C36.6381 23.4383 30.4702 26.3293 24.6402 29.4427Z" fill="#F8F8F8"/>
</svg>
