<svg width="361" height="563" fill="none" xmlns="http://www.w3.org/2000/svg"><path d="M406.974 551.806h-39.817v-6.451H351.86v-17.792h-18.018v-60.482c14.238-.151 23.588-.479 27.721-.983 20.16-2.52 36.137-15.498 36.793-16.053l9.399-7.787-11.541 4.007a89.537 89.537 0 0 1-26.36 3.402c-22.429 0-57.282-6.35-96.116-36.616l-.605-.479h-2.192V368.37l2.52-10.736c9.123 0 18.346.127 26.965.127 22.151 0 36.011-.353 41.203-1.084 17.64-2.52 31.551-15.549 32.131-16.103l7.409-7.082-9.577 3.654a72.472 72.472 0 0 1-23.764 3.453c-20.009 0-50.931-6.351-84.624-36.566l-.605-.53h-1.234v-34.6h.478l2.52-11.341c6.981 0 14.037.126 20.64.126a311.381 311.381 0 0 0 34.449-1.083c14.869-2.52 26.486-15.625 26.99-16.179l5.544-6.376-7.736 3.402a55.898 55.898 0 0 1-20.438 3.428c-16.985 0-42.841-6.225-70.713-35.584v-28.149l2.066-9.123c5.695 0 11.416.126 16.784.126 15.675 0 25.075-.352 28.779-1.108 12.6-2.521 22.177-15.675 22.681-16.23l3.251-4.435-5.192 1.814a82.783 82.783 0 0 1-24.545 3.478c-19.531 0-47.73-6.325-71.066-36.415l-.529-.68h-3.251v-13.331h-3.932a11.786 11.786 0 0 0-9.752-8.871V.692c0-.328-.756-.605-1.664-.605-.907 0-1.688.277-1.688.605v91.655a11.798 11.798 0 0 0-9.753 8.87h-3.629v13.357h-3.251l-.529.68c-23.336 30.09-51.535 36.39-71.066 36.39a82.985 82.985 0 0 1-24.545-3.478l-5.192-1.814 3.251 4.435c.404.555 10.081 13.735 22.681 16.229 3.705.756 13.104 1.109 28.779 1.109 5.368 0 11.088 0 16.784-.126l2.066 9.123v28.149c-27.72 29.359-53.728 35.583-70.713 35.583a55.87 55.87 0 0 1-20.438-3.427l-7.736-3.402 5.544 6.376c.504.554 12.121 13.684 26.99 16.179a311.628 311.628 0 0 0 34.449 1.083c6.603 0 13.659 0 20.665-.126l2.52 11.341h.479v35.407c-33.542 29.862-65.018 36.163-85.683 36.163a79.32 79.32 0 0 1-24.671-3.453l-9.3-3.402 7.158 6.829c.58.555 14.465 13.659 32.13 16.104 5.192.73 19.052 1.083 41.204 1.083 8.417 0 17.388 0 26.284-.126l2.923 12.928h.177v42.136h-2.193l-.605.479c-38.834 30.24-73.686 36.616-96.09 36.616a89.622 89.622 0 0 1-26.687-3.427l-11.542-4.032 9.4 7.812c.655.555 16.582 13.608 36.793 16.053 4.233.504 13.583.832 27.846.983v60.481H61.498v17.792H46.277v6.451H6.459a5.5 5.5 0 0 0-5.41 3.294 5.491 5.491 0 0 0 3.197 7.363c.709.253 1.462.357 2.213.306h400.515a5.487 5.487 0 0 0 5.866-5.481 5.488 5.488 0 0 0-1.743-4.014 5.49 5.49 0 0 0-4.123-1.468v.051z" fill="#000"/></svg>