<svg width="1728" height="228" fill="none" xmlns="http://www.w3.org/2000/svg"><path d="M2122 6.61v326.176H-283.504V.509l46.77 13.62s54.263 11.948 62.281 13.492c8.017 1.544 78.604 6.202 78.604 6.202h68.936c8.018 0 76.718-16.657 76.718-16.657s78.84 18.986 87.67 16.657c8.83-2.329 109.05.203 109.05.203s46.77-5.24 53.451 0c6.682 5.24 51.591 13.821 51.591 13.821L576.061 33.9s98.098-9.29 115.286-9.67c17.189-.38 64.142-5.822 72.683 0 8.542 5.822 152.1-9.695 155.296 0 3.197 9.695 135.484 23.618 135.484 23.618L1294.56 33.9s35.55-11.62 70.3-9.67c34.74 1.95 123.95 23.618 123.95 23.618s53.46 1.544 59.88 0c6.41-1.544 70.56-12.404 89.81-10.126 19.26 2.279 113.06-3.873 128.39 0 15.33 3.874 115.47 10.76 115.47 10.76s40.87 6.885 51.3 0c10.43-6.886 151.81-34.327 151.81-34.327L2122 6.61z" fill="#000"/></svg>