<svg width="261" height="358" fill="none" xmlns="http://www.w3.org/2000/svg"><path d="M216.051 344.997v9.642l44.128-2.143s1.607-3.749-2.678-7.499c-4.285-3.749-21.962-8.57-21.962-8.57s-19.284-12.856-15.534-19.284c3.749-6.428 9.106-.536 9.106-6.964 0-6.428-14.999-20.355-20.891-32.139-5.892-11.785 2.807-5.357 7.831-8.571 5.025-3.214-30.864-17.141-46.934-34.282-16.07-17.141-31.068-19.82-27.854-27.854 3.214-8.035 3.214-26.248 3.214-26.248s14.998 6.428 18.748 0c3.749-6.428-1.607-41.246-8.571-50.888-6.963-9.641-1.607-6.963-35.889-7.499-34.282-.535-54.102-3.214-58.387-3.749-4.285-.536-1.875-5.55-1.875-10.349 0-4.8-.29-14.999-6.846-15.17-6.556-.172-4.66 5.26-8.41 5.26s-8.26 6.717-5.045 7.274c3.214.557 14.677 14.592 6.106 14.592-8.57 0-14.998 1.071-18.748-4.821-3.75-5.893-1.64-8.571-5.924-6.353-4.286 2.217-1.072 6.535-6.964 8.142-5.892 1.607-11.163 8.967-2.057 9.502 9.106.536 12.267 5.357 12.267 5.357s-8.035 18.748-7.5 25.176c0 0 22.498 9.106 34.283 3.75 11.784-5.357 21.426 11.248 27.854 12.855 6.428 1.607-1.071 38.032 1.071 43.925 2.143 5.892-54.637 47.673-43.388 50.352 11.249 2.678 6.428 16.069 2.678 28.39-3.75 12.32-5.356 20.89-1.071 28.925a109.07 109.07 0 0 1 34.818 2.143c17.677 4.285 31.604-5.357 31.604-5.357s-10.82-22.497-9.428-29.997c1.393-7.499 27.608 6.428 36.425 2.679 8.817-3.75 8.86-8.571 8.86-8.571s23.033 8.571 23.033 20.891c0 12.32 1.607 23.569 10.713 24.64 9.107 1.072 29.997-1.607 29.997-1.607s13.22 10.135 13.22 14.42z" fill="#000"/><path d="M61.985 320.357c4.821 14.462 1.843 24.104-2.56 25.711-4.403 1.607-19.402-3.214-23.687 0s-3.75 11.249-3.75 11.249h56.245c2.678 0-.536-15.534 0-18.48.535-2.946-10.178-14.731-10.178-22.766 0-8.035-16.07 4.286-16.07 4.286zM.05 127.069S131.106 35.525 237.23.846c0 0-148.013 66.68-232.873 130.841l-4.306-4.618z" fill="#000"/><path d="M138.711 132.383c7.703-6.535.225-13.67 11.785-14.345 11.56-.675 1.907-10.306 1.907-11.784 0-1.479 1.232-4.029.675-4.586 0 0 7.274.225 6.492-2.142-.782-2.368-4.371-6.664-7.949-10.05 0 0 6.717-.813 9.181-1.381 2.464-.568-7.724-4.135-7.724-4.135l-.675-3.482s-14.677-4.81-12.32-18.706c2.357-13.895 12.427-11.538 12.427-11.538l-.45-4.285s-7.167-.675-6.599-9.642c0 0-17.484 10.092-12.995 29.804a29.22 29.22 0 0 0-11.206-2.689c-5.711 0-18.481 10.863-14.902 28.926a120.948 120.948 0 0 0-12.214 18.887 117.72 117.72 0 0 0-7.949 22.219s39.971 9.567 52.516-1.071z" fill="#000"/></svg>